<svg width="28" height="28" viewBox="0 0 28 28" fill="none" xmlns="http://www.w3.org/2000/svg">
<path d="M19.8333 4.08333C19.8333 4.00673 19.8182 3.93088 19.7889 3.8601C19.7596 3.78933 19.7166 3.72502 19.6625 3.67086C19.6083 3.61669 19.544 3.57372 19.4732 3.5444C19.4025 3.51509 19.3266 3.5 19.25 3.5H16.3333C14.8646 3.42684 13.4267 3.93796 12.3337 4.92168C11.2407 5.9054 10.5814 7.28175 10.5 8.75V11.9H7.58333C7.42862 11.9 7.28025 11.9615 7.17085 12.0709C7.06146 12.1803 7 12.3286 7 12.4833V15.5167C7 15.6714 7.06146 15.8198 7.17085 15.9291C7.28025 16.0385 7.42862 16.1 7.58333 16.1H10.5V23.9167C10.5 24.0714 10.5615 24.2197 10.6709 24.3291C10.7803 24.4385 10.9286 24.5 11.0833 24.5H14.5833C14.6599 24.5 14.7358 24.4849 14.8066 24.4556C14.8773 24.4263 14.9416 24.3833 14.9958 24.3291C15.05 24.275 15.0929 24.2107 15.1223 24.1399C15.1516 24.0691 15.1667 23.9933 15.1667 23.9167V16.1H18.2233C18.3531 16.1019 18.4797 16.0604 18.5832 15.9823C18.6868 15.9041 18.7613 15.7936 18.795 15.6683L19.635 12.635C19.6582 12.5488 19.6613 12.4584 19.6441 12.3709C19.6269 12.2833 19.5898 12.2008 19.5357 12.1298C19.4816 12.0588 19.412 12.0012 19.3321 11.9613C19.2522 11.9215 19.1643 11.9005 19.075 11.9H15.1667V8.75C15.1957 8.46122 15.3313 8.19363 15.547 7.99948C15.7628 7.80532 16.0431 7.69855 16.3333 7.7H19.25C19.4047 7.7 19.5531 7.63854 19.6625 7.52915C19.7719 7.41975 19.8333 7.27138 19.8333 7.11667V4.08333Z" fill="#3B5998"/>
</svg>
