<svg width="29" height="29" viewBox="0 0 29 29" fill="none" xmlns="http://www.w3.org/2000/svg">
<g clip-path="url(#clip0_32_633)">
<path d="M6.06333 14.5C6.06333 13.5793 6.22041 12.696 6.49833 11.8683L1.61908 8.21909C0.638755 10.1675 0.129674 12.3189 0.132827 14.5C0.132827 16.7572 0.66691 18.8863 1.61666 20.7761L6.49349 17.1209C6.20913 16.2763 6.06385 15.3912 6.06333 14.5Z" fill="#FBBC05"/>
<path d="M14.6329 6.12263C16.675 6.12263 18.5201 6.83072 19.9701 7.99072L24.1884 3.86667C21.6183 1.67597 18.3231 0.322632 14.6329 0.322632C8.90297 0.322632 3.97781 3.53076 1.61914 8.21909L6.50081 11.8683C7.62456 8.52601 10.8291 6.12263 14.6329 6.12263Z" fill="#EA4335"/>
<path d="M14.6329 22.8774C10.8278 22.8774 7.62335 20.474 6.49839 17.1317L1.61914 20.7809C3.9766 25.4692 8.90177 28.6774 14.6329 28.6774C18.1685 28.6774 21.5446 27.4485 24.0796 25.1442L19.4469 21.6376C18.1407 22.4436 16.4949 22.8774 14.6317 22.8774" fill="#34A853"/>
<path d="M28.4731 14.5C28.4731 13.6626 28.3401 12.76 28.1432 11.9226H14.6316V17.4H22.4084C22.0206 19.2681 20.962 20.7036 19.448 21.6376L24.0796 25.1442C26.7415 22.7251 28.4731 19.1219 28.4731 14.5Z" fill="#4285F4"/>
</g>
<defs>
<clipPath id="clip0_32_633">
<rect width="29" height="29" fill="white"/>
</clipPath>
</defs>
</svg>
