<svg width="314" height="42" viewBox="0 0 314 42" fill="none" xmlns="http://www.w3.org/2000/svg">
<path fill-rule="evenodd" clip-rule="evenodd" d="M11.8045 41.3158C5.28506 41.3158 0 36.0307 0 29.5113C0 13.2126 13.2127 -1.14453e-05 29.5113 -1.14453e-05H302.195C308.715 -1.14453e-05 314 5.28505 314 11.8045C314 28.1031 300.787 41.3158 284.489 41.3158H11.8045ZM133.676 25.0761C134.198 25.3001 134.786 25.4121 135.44 25.4121C136.131 25.4121 136.728 25.2814 137.232 25.0201C137.745 24.7494 138.133 24.3947 138.394 23.956C138.665 23.5172 138.8 23.0505 138.8 22.5558C138.8 21.9397 138.655 21.4497 138.366 21.0857C138.086 20.7123 137.741 20.4369 137.33 20.2596C136.929 20.0822 136.406 19.9049 135.762 19.7275C135.276 19.5968 134.894 19.4755 134.614 19.3635C134.334 19.2515 134.1 19.1021 133.914 18.9154C133.736 18.7194 133.648 18.4721 133.648 18.1734C133.648 17.7346 133.792 17.3986 134.082 17.1653C134.371 16.9319 134.744 16.8152 135.202 16.8152C135.706 16.8152 136.112 16.9412 136.42 17.1933C136.728 17.4453 136.896 17.7486 136.924 18.1033H138.688C138.623 17.2819 138.287 16.6379 137.68 16.1711C137.083 15.6951 136.313 15.4571 135.37 15.4571C134.707 15.4571 134.124 15.5691 133.62 15.7931C133.116 16.0171 132.724 16.3392 132.443 16.7592C132.163 17.1793 132.023 17.6693 132.023 18.2294C132.023 18.8361 132.163 19.3215 132.443 19.6855C132.724 20.0496 133.06 20.3202 133.452 20.4976C133.853 20.6656 134.371 20.8336 135.006 21.0017C135.51 21.1323 135.902 21.2537 136.182 21.3657C136.471 21.4777 136.709 21.6364 136.896 21.8417C137.092 22.0471 137.19 22.3131 137.19 22.6398C137.19 23.0599 137.036 23.4052 136.728 23.6759C136.42 23.9373 135.991 24.068 135.44 24.068C134.908 24.068 134.492 23.9326 134.194 23.6619C133.904 23.3912 133.741 23.0459 133.704 22.6258H131.995C131.995 23.1859 132.145 23.6759 132.443 24.096C132.742 24.516 133.153 24.8427 133.676 25.0761ZM141.188 16.2832C141.384 16.4792 141.626 16.5772 141.916 16.5772C142.196 16.5772 142.434 16.4792 142.63 16.2832C142.826 16.0871 142.924 15.8444 142.924 15.5551C142.924 15.2657 142.826 15.023 142.63 14.827C142.434 14.631 142.196 14.533 141.916 14.533C141.626 14.533 141.384 14.631 141.188 14.827C140.992 15.023 140.894 15.2657 140.894 15.5551C140.894 15.8444 140.992 16.0871 141.188 16.2832ZM142.7 25.3141V17.5993H141.104V25.3141H142.7ZM149.906 17.8373C149.449 17.5946 148.921 17.4733 148.324 17.4733C147.652 17.4733 147.036 17.6413 146.476 17.9773C145.925 18.304 145.486 18.7661 145.159 19.3635C144.842 19.9609 144.683 20.6469 144.683 21.4217C144.683 22.1964 144.842 22.8918 145.159 23.5079C145.486 24.1146 145.925 24.5907 146.476 24.9361C147.036 25.2721 147.652 25.4401 148.324 25.4401C148.912 25.4401 149.435 25.3188 149.892 25.0761C150.359 24.824 150.727 24.516 150.998 24.152V25.4401C150.998 26.1869 150.797 26.7562 150.396 27.1483C150.004 27.5403 149.486 27.7364 148.842 27.7364C148.291 27.7364 147.815 27.6103 147.414 27.3583C147.022 27.1156 146.765 26.7936 146.644 26.3922H145.061C145.155 27.2323 145.547 27.895 146.238 28.3804C146.928 28.8751 147.796 29.1225 148.842 29.1225C149.626 29.1225 150.298 28.9638 150.858 28.6464C151.427 28.3291 151.861 27.8904 152.16 27.3303C152.459 26.7796 152.608 26.1495 152.608 25.4401V17.5993H150.998V18.7194C150.737 18.3647 150.373 18.0707 149.906 17.8373ZM150.662 20.0636C150.886 20.4556 150.998 20.9176 150.998 21.4497C150.998 21.9818 150.886 22.4485 150.662 22.8498C150.447 23.2419 150.163 23.5406 149.808 23.7459C149.453 23.9513 149.071 24.054 148.66 24.054C148.258 24.054 147.876 23.9513 147.512 23.7459C147.157 23.5312 146.868 23.2232 146.644 22.8218C146.429 22.4205 146.322 21.9537 146.322 21.4217C146.322 20.8896 146.429 20.4323 146.644 20.0496C146.868 19.6575 147.157 19.3635 147.512 19.1675C147.866 18.9621 148.249 18.8594 148.66 18.8594C149.071 18.8594 149.453 18.9621 149.808 19.1675C150.163 19.3728 150.447 19.6715 150.662 20.0636ZM160.641 17.8513C160.165 17.5993 159.624 17.4733 159.017 17.4733C158.56 17.4733 158.126 17.562 157.715 17.7393C157.314 17.9167 156.982 18.164 156.721 18.4814V17.5993H155.125V25.3141H156.721V21.0017C156.721 20.3109 156.894 19.7835 157.239 19.4195C157.594 19.0461 158.07 18.8594 158.667 18.8594C159.265 18.8594 159.736 19.0461 160.081 19.4195C160.427 19.7835 160.599 20.3109 160.599 21.0017V25.3141H162.181V20.7636C162.181 20.0636 162.046 19.4662 161.775 18.9714C161.505 18.4767 161.127 18.1033 160.641 17.8513ZM168.779 16.2832C168.975 16.4792 169.217 16.5772 169.507 16.5772C169.787 16.5772 170.025 16.4792 170.221 16.2832C170.417 16.0871 170.515 15.8444 170.515 15.5551C170.515 15.2657 170.417 15.023 170.221 14.827C170.025 14.631 169.787 14.533 169.507 14.533C169.217 14.533 168.975 14.631 168.779 14.827C168.583 15.023 168.485 15.2657 168.485 15.5551C168.485 15.8444 168.583 16.0871 168.779 16.2832ZM170.291 25.3141V17.5993H168.695V25.3141H170.291ZM178.323 17.8513C177.847 17.5993 177.306 17.4733 176.699 17.4733C176.242 17.4733 175.808 17.562 175.397 17.7393C174.995 17.9167 174.664 18.164 174.403 18.4814V17.5993H172.807V25.3141H174.403V21.0017C174.403 20.3109 174.575 19.7835 174.921 19.4195C175.275 19.0461 175.751 18.8594 176.349 18.8594C176.946 18.8594 177.418 19.0461 177.763 19.4195C178.108 19.7835 178.281 20.3109 178.281 21.0017V25.3141H179.863V20.7636C179.863 20.0636 179.728 19.4662 179.457 18.9714C179.187 18.4767 178.808 18.1033 178.323 17.8513Z" fill="#666666"/>
</svg>
