<svg width="22" height="12" viewBox="0 0 22 12" fill="none" xmlns="http://www.w3.org/2000/svg">
<path opacity="0.6" d="M21.0269 6.81478C21.4769 6.81478 21.8417 6.44999 21.8417 6C21.8417 5.55001 21.4769 5.18522 21.0269 5.18522V6.81478ZM0.238569 5.42386C-0.079622 5.74206 -0.079622 6.25794 0.238569 6.57614L5.42379 11.7614C5.74198 12.0796 6.25787 12.0796 6.57607 11.7614C6.89426 11.4432 6.89426 10.9273 6.57607 10.6091L1.96698 6L6.57607 1.39091C6.89426 1.07272 6.89426 0.556831 6.57607 0.23864C6.25787 -0.0795514 5.74198 -0.0795514 5.42379 0.23864L0.238569 5.42386ZM21.0269 5.18522H0.814705V6.81478H21.0269V5.18522Z" fill="#0A0A0A"/>
</svg>
