<svg width="80" height="80" viewBox="0 0 80 80" fill="none" xmlns="http://www.w3.org/2000/svg">
<path d="M11.1516 30.0617L21.5392 29.7966C24.4962 29.7211 27.203 30.856 29.1847 32.7501L18.7971 33.0153C15.8401 33.0907 13.1334 31.9559 11.1516 30.0617Z" stroke="#0A0A0A" stroke-width="9.06892"/>
<path d="M30.6924 32.7116C20.3979 32.9744 11.5376 26.3017 8.58843 16.9475L9.30759 16.9291C19.6021 16.6664 28.4624 23.3391 31.4115 32.6933L30.6924 32.7116Z" stroke="#0A0A0A" stroke-width="15"/>
<path d="M19.5791 51.1515L19.8442 61.5391C19.9197 64.4961 18.7848 67.2029 16.8907 69.1847L16.6256 58.797C16.5501 55.84 17.6849 53.1333 19.5791 51.1515Z" stroke="#0A0A0A" stroke-width="9.06892"/>
<path d="M16.9293 70.6924C16.6665 60.3979 23.3392 51.5376 32.6934 48.5884L32.7118 49.3076C32.9745 59.6021 26.3018 68.4624 16.9476 71.4115L16.9293 70.6924Z" stroke="#0A0A0A" stroke-width="15"/>
<path d="M49.9381 11.1515L50.2032 21.5391C50.2787 24.4961 49.1438 27.2029 47.2497 29.1847L46.9846 18.797C46.9091 15.84 48.0439 13.1333 49.9381 11.1515Z" stroke="#0A0A0A" stroke-width="9.06892"/>
<path d="M47.2883 30.6924C47.0255 20.3979 53.6982 11.5376 63.0524 8.58843L63.0708 9.30759C63.3335 19.6021 56.6608 28.4624 47.3066 31.4115L47.2883 30.6924Z" stroke="#0A0A0A" stroke-width="15"/>
<path d="M68.8484 49.9383L58.4608 50.2034C55.5038 50.2789 52.797 49.144 50.8153 47.2499L61.2029 46.9848C64.1599 46.9093 66.8666 48.0441 68.8484 49.9383Z" stroke="#0A0A0A" stroke-width="9.06892"/>
<path d="M49.3076 47.2884C59.6021 47.0256 68.4624 53.6983 71.4116 63.0525L70.6924 63.0709C60.3979 63.3336 51.5376 56.6609 48.5885 47.3067L49.3076 47.2884Z" stroke="#0A0A0A" stroke-width="15"/>
</svg>
