<svg width="314" height="42" viewBox="0 0 314 42" fill="none" xmlns="http://www.w3.org/2000/svg">
<path fill-rule="evenodd" clip-rule="evenodd" d="M11.8045 41.3158C5.28506 41.3158 0 36.0307 0 29.5113C0 13.2126 13.2127 0 29.5113 0H302.195C308.715 0 314 5.28506 314 11.8045C314 28.1031 300.787 41.3158 284.489 41.3158H11.8045ZM130.777 25.0761C131.3 25.3001 131.888 25.4121 132.541 25.4121C133.232 25.4121 133.829 25.2814 134.333 25.0201C134.847 24.7494 135.234 24.3947 135.495 23.956C135.766 23.5173 135.901 23.0505 135.901 22.5558C135.901 21.9398 135.757 21.4497 135.467 21.0857C135.187 20.7123 134.842 20.4369 134.431 20.2596C134.03 20.0822 133.507 19.9049 132.863 19.7275C132.378 19.5968 131.995 19.4755 131.715 19.3635C131.435 19.2515 131.202 19.1021 131.015 18.9154C130.838 18.7194 130.749 18.4721 130.749 18.1734C130.749 17.7347 130.894 17.3986 131.183 17.1653C131.472 16.9319 131.846 16.8152 132.303 16.8152C132.807 16.8152 133.213 16.9412 133.521 17.1933C133.829 17.4453 133.997 17.7487 134.025 18.1034H135.789C135.724 17.2819 135.388 16.6379 134.781 16.1712C134.184 15.6951 133.414 15.4571 132.471 15.4571C131.808 15.4571 131.225 15.5691 130.721 15.7931C130.217 16.0171 129.825 16.3392 129.545 16.7592C129.265 17.1793 129.125 17.6693 129.125 18.2294C129.125 18.8361 129.265 19.3215 129.545 19.6855C129.825 20.0496 130.161 20.3203 130.553 20.4976C130.954 20.6656 131.472 20.8336 132.107 21.0017C132.611 21.1323 133.003 21.2537 133.283 21.3657C133.572 21.4777 133.811 21.6364 133.997 21.8417C134.193 22.0471 134.291 22.3131 134.291 22.6398C134.291 23.0599 134.137 23.4052 133.829 23.6759C133.521 23.9373 133.092 24.068 132.541 24.068C132.009 24.068 131.594 23.9326 131.295 23.6619C131.006 23.3912 130.842 23.0459 130.805 22.6258H129.097C129.097 23.1859 129.246 23.6759 129.545 24.096C129.843 24.516 130.254 24.8427 130.777 25.0761ZM138.289 16.2832C138.485 16.4792 138.728 16.5772 139.017 16.5772C139.297 16.5772 139.535 16.4792 139.731 16.2832C139.927 16.0872 140.025 15.8445 140.025 15.5551C140.025 15.2657 139.927 15.023 139.731 14.827C139.535 14.631 139.297 14.533 139.017 14.533C138.728 14.533 138.485 14.631 138.289 14.827C138.093 15.023 137.995 15.2657 137.995 15.5551C137.995 15.8445 138.093 16.0872 138.289 16.2832ZM139.801 25.3141V17.5993H138.205V25.3141H139.801ZM147.007 17.8373C146.55 17.5946 146.022 17.4733 145.425 17.4733C144.753 17.4733 144.137 17.6413 143.577 17.9773C143.026 18.304 142.587 18.7661 142.261 19.3635C141.943 19.9609 141.785 20.647 141.785 21.4217C141.785 22.1965 141.943 22.8919 142.261 23.5079C142.587 24.1147 143.026 24.5907 143.577 24.9361C144.137 25.2721 144.753 25.4401 145.425 25.4401C146.013 25.4401 146.536 25.3188 146.993 25.0761C147.46 24.8241 147.829 24.516 148.099 24.152V25.4401C148.099 26.1869 147.899 26.7563 147.497 27.1483C147.105 27.5403 146.587 27.7364 145.943 27.7364C145.392 27.7364 144.916 27.6104 144.515 27.3583C144.123 27.1156 143.866 26.7936 143.745 26.3922H142.163C142.256 27.2323 142.648 27.895 143.339 28.3804C144.03 28.8751 144.898 29.1225 145.943 29.1225C146.727 29.1225 147.399 28.9638 147.959 28.6465C148.529 28.3291 148.963 27.8904 149.261 27.3303C149.56 26.7796 149.709 26.1495 149.709 25.4401V17.5993H148.099V18.7194C147.838 18.3647 147.474 18.0707 147.007 17.8373ZM147.763 20.0636C147.987 20.4556 148.099 20.9177 148.099 21.4497C148.099 21.9818 147.987 22.4485 147.763 22.8499C147.549 23.2419 147.264 23.5406 146.909 23.7459C146.554 23.9513 146.172 24.054 145.761 24.054C145.36 24.054 144.977 23.9513 144.613 23.7459C144.258 23.5313 143.969 23.2232 143.745 22.8219C143.53 22.4205 143.423 21.9538 143.423 21.4217C143.423 20.8897 143.53 20.4323 143.745 20.0496C143.969 19.6575 144.258 19.3635 144.613 19.1675C144.968 18.9621 145.35 18.8594 145.761 18.8594C146.172 18.8594 146.554 18.9621 146.909 19.1675C147.264 19.3728 147.549 19.6715 147.763 20.0636ZM157.743 17.8513C157.267 17.5993 156.725 17.4733 156.118 17.4733C155.661 17.4733 155.227 17.562 154.816 17.7393C154.415 17.9167 154.084 18.164 153.822 18.4814V17.5993H152.226V25.3141H153.822V21.0017C153.822 20.3109 153.995 19.7835 154.34 19.4195C154.695 19.0461 155.171 18.8594 155.768 18.8594C156.366 18.8594 156.837 19.0461 157.183 19.4195C157.528 19.7835 157.701 20.3109 157.701 21.0017V25.3141H159.283V20.7636C159.283 20.0636 159.147 19.4662 158.877 18.9714C158.606 18.4767 158.228 18.1034 157.743 17.8513ZM172.783 25.3141V17.5993H171.187V21.8978C171.187 22.5885 171.009 23.1206 170.654 23.4939C170.309 23.858 169.838 24.04 169.24 24.04C168.643 24.04 168.172 23.858 167.826 23.4939C167.481 23.1206 167.308 22.5885 167.308 21.8978V17.5993H165.726V22.1358C165.726 22.8359 165.861 23.4332 166.132 23.928C166.412 24.4227 166.79 24.7961 167.266 25.0481C167.751 25.3001 168.298 25.4261 168.904 25.4261C169.362 25.4261 169.791 25.3374 170.192 25.1601C170.603 24.9734 170.934 24.7214 171.187 24.404V25.3141H172.783ZM178.011 17.8373C177.544 18.08 177.176 18.3787 176.905 18.7334V17.5993H175.309V28.9825H176.905V24.194C177.194 24.5487 177.568 24.8474 178.025 25.0901C178.482 25.3234 179.005 25.4401 179.593 25.4401C180.265 25.4401 180.877 25.2721 181.427 24.9361C181.987 24.5907 182.426 24.1147 182.744 23.5079C183.061 22.8919 183.22 22.1965 183.22 21.4217C183.22 20.647 183.061 19.9609 182.744 19.3635C182.426 18.7661 181.987 18.304 181.427 17.9773C180.877 17.6413 180.265 17.4733 179.593 17.4733C179.005 17.4733 178.478 17.5946 178.011 17.8373ZM181.259 20.0496C181.483 20.4323 181.595 20.8897 181.595 21.4217C181.595 21.9538 181.483 22.4205 181.259 22.8219C181.045 23.2232 180.755 23.5313 180.391 23.7459C180.037 23.9513 179.654 24.054 179.243 24.054C178.842 24.054 178.459 23.9513 178.095 23.7459C177.74 23.5406 177.451 23.2419 177.227 22.8499C177.012 22.4485 176.905 21.9818 176.905 21.4497C176.905 20.9177 177.012 20.4556 177.227 20.0636C177.451 19.6715 177.74 19.3728 178.095 19.1675C178.459 18.9621 178.842 18.8594 179.243 18.8594C179.654 18.8594 180.037 18.9621 180.391 19.1675C180.755 19.3635 181.045 19.6575 181.259 20.0496Z" fill="#666666"/>
</svg>
