<svg width="301" height="301" viewBox="0 0 301 301" fill="none" xmlns="http://www.w3.org/2000/svg">
<path d="M150.5 287.714C228.828 287.714 292.325 251.053 292.325 205.83C292.325 160.607 228.828 123.946 150.5 123.946C72.1721 123.946 8.6748 160.607 8.6748 205.83C8.6748 251.053 72.1721 287.714 150.5 287.714Z" fill="#DEE4E7"/>
<g opacity="0.4">
<path d="M121.153 267.878C148.163 267.878 170.059 255.237 170.059 239.644C170.059 224.051 148.163 211.41 121.153 211.41C94.1423 211.41 72.2461 224.051 72.2461 239.644C72.2461 255.237 94.1423 267.878 121.153 267.878Z" fill="#0A0A0A"/>
</g>
<path d="M260.232 204.319L254.495 201.008C254.495 201.008 253.093 188.727 254.026 179.215C255.338 165.851 263.971 149.766 274.265 153.546C284.559 157.327 269.545 170.932 266.204 182.268C262.863 193.603 260.232 204.319 260.232 204.319Z" fill="#666666"/>
<path opacity="0.15" d="M260.232 204.319L254.495 201.008C254.495 201.008 253.093 188.727 254.026 179.215C255.338 165.851 263.971 149.766 274.265 153.546C284.559 157.327 269.545 170.932 266.204 182.268C262.863 193.603 260.232 204.319 260.232 204.319Z" fill="black"/>
<path d="M257.217 202.928C257.308 202.923 257.394 202.883 257.456 202.815C257.518 202.748 257.551 202.659 257.548 202.567C256.542 172.87 271.327 157.929 271.472 157.784C271.537 157.719 271.574 157.63 271.574 157.537C271.574 157.445 271.537 157.356 271.472 157.291C271.44 157.258 271.402 157.233 271.36 157.215C271.318 157.198 271.273 157.189 271.228 157.189C271.183 157.189 271.138 157.198 271.096 157.215C271.054 157.233 271.016 157.258 270.984 157.291C270.828 157.435 255.832 172.593 256.849 202.591C256.851 202.637 256.862 202.683 256.881 202.725C256.9 202.767 256.928 202.805 256.962 202.837C256.996 202.868 257.036 202.892 257.08 202.908C257.124 202.924 257.17 202.931 257.217 202.928Z" fill="white"/>
<path d="M263.838 206.384L259.757 204.03C259.757 204.03 259.059 195.602 263.194 185.368C266.806 176.458 275.716 169.06 280.207 170.613C284.698 172.166 284.583 175.351 282.392 178.692C280.201 182.033 266.891 189.985 263.838 206.384Z" fill="#666666"/>
<path d="M261.683 205.493C261.776 205.491 261.863 205.454 261.929 205.389C261.994 205.324 262.031 205.236 262.033 205.144C261.948 186.361 279.581 173.671 279.761 173.545C279.799 173.519 279.831 173.486 279.856 173.447C279.88 173.409 279.896 173.366 279.904 173.321C279.911 173.275 279.909 173.229 279.898 173.185C279.887 173.141 279.867 173.099 279.84 173.063C279.786 172.989 279.706 172.938 279.616 172.922C279.526 172.907 279.433 172.927 279.358 172.979C279.178 173.105 261.256 186.012 261.334 205.144C261.334 205.236 261.371 205.325 261.437 205.39C261.502 205.456 261.591 205.493 261.683 205.493Z" fill="white"/>
<path d="M47.9555 196.944L53.253 193.368C53.253 193.368 55.5828 179.522 53.4156 167.308C50.3695 150.175 38.5281 144.48 34.3141 146.286C30.1001 148.092 29.1971 153.191 37.0653 162.967C41.7308 168.716 47.7929 180.991 47.9555 196.944Z" fill="#666666"/>
<g opacity="0.15">
<path d="M47.9555 196.944L53.253 193.368C53.253 193.368 55.5828 179.522 53.4156 167.308C50.3695 150.175 38.5281 144.48 34.3141 146.286C30.1001 148.092 29.1971 153.191 37.0653 162.967C41.7308 168.716 47.7929 180.991 47.9555 196.944Z" fill="black"/>
</g>
<path d="M49.7733 190.081H49.7191C49.665 190.078 49.6122 190.063 49.5642 190.038C49.5162 190.013 49.4741 189.978 49.4406 189.935C49.407 189.893 49.3829 189.843 49.3697 189.791C49.3565 189.738 49.3545 189.683 49.364 189.63C51.2783 173.502 44.4697 155.996 37.0591 149.031C36.9878 148.959 36.9478 148.862 36.9478 148.76C36.9478 148.659 36.9878 148.561 37.0591 148.489C37.0944 148.453 37.1365 148.425 37.1831 148.405C37.2296 148.385 37.2795 148.375 37.33 148.375C37.3804 148.375 37.4304 148.385 37.4769 148.405C37.5234 148.425 37.5656 148.453 37.6009 148.489C45.15 155.581 52.085 173.376 50.1466 189.738C50.1352 189.83 50.0914 189.916 50.023 189.978C49.9546 190.041 49.8661 190.078 49.7733 190.081Z" fill="white"/>
<path d="M34.0853 206.299C33.2425 206.805 30.7864 204.981 30.1061 204.541C28.9402 203.78 27.9906 202.731 27.3489 201.495C26.6291 200.094 26.362 198.504 26.5844 196.944C26.7077 196.13 26.8867 195.326 27.1202 194.536C27.3309 193.748 27.5416 192.959 27.7222 192.164C27.9892 191.391 28.0917 190.571 28.0232 189.756C27.7884 188.149 26.3376 187.047 25.0132 186.102C23.5563 185.049 22.0032 183.658 22.0032 181.72C22.0774 180.197 22.6604 178.743 23.6587 177.59C24.5617 176.386 25.6453 175.338 26.458 174.08C27.0935 173.208 27.4178 172.148 27.379 171.07C27.2744 170.406 27.0369 169.769 26.6807 169.198C25.9704 167.946 25.0493 166.79 24.5496 165.46C24.05 164.129 24.0861 162.42 25.1516 161.426C26.0005 160.614 27.2948 160.481 28.4687 160.535C29.5748 160.645 30.6434 160.997 31.5991 161.565C34.7114 163.22 36.5415 166.832 39.8344 168.09C41.1046 168.572 42.4892 168.656 43.8076 168.981C45.126 169.306 46.4865 169.951 47.1186 171.149C48.3648 173.526 46.1915 176.524 47.0825 179.047C47.8771 181.286 50.0925 182.105 51.3447 184.11C51.8529 185 52.0637 186.029 51.9467 187.047C51.876 188.767 51.4904 190.458 50.8089 192.038C50.0251 193.676 49.1404 195.265 48.1601 196.794C48.1601 196.794 34.2117 206.221 34.0853 206.299Z" fill="#666666"/>
<path d="M42.2243 201.309C42.1737 201.308 42.1237 201.297 42.0773 201.277C42.0309 201.257 41.9888 201.228 41.9536 201.192C41.9184 201.155 41.8907 201.112 41.872 201.065C41.8534 201.018 41.8442 200.968 41.845 200.917C42.1822 185.675 34.6812 169.011 29.3716 164.195C29.2961 164.127 29.2506 164.032 29.245 163.931C29.2393 163.829 29.274 163.73 29.3415 163.654C29.3768 163.618 29.419 163.589 29.4655 163.569C29.512 163.55 29.5619 163.54 29.6124 163.54C29.6628 163.54 29.7128 163.55 29.7593 163.569C29.8058 163.589 29.848 163.618 29.8833 163.654C35.3013 168.53 42.9527 185.482 42.6096 200.936C42.6088 200.985 42.5982 201.035 42.5784 201.08C42.5586 201.126 42.53 201.167 42.4942 201.202C42.4585 201.237 42.4162 201.264 42.3699 201.282C42.3236 201.301 42.2741 201.31 42.2243 201.309Z" fill="white"/>
<path d="M39.4129 182.737C39.3773 182.746 39.3401 182.746 39.3046 182.737C34.3802 181.316 28.2759 181.172 28.2157 181.166C28.1654 181.165 28.1157 181.154 28.0696 181.134C28.0235 181.114 27.9818 181.085 27.9471 181.048C27.9124 181.012 27.8852 180.969 27.8673 180.922C27.8493 180.875 27.8409 180.825 27.8425 180.775C27.8415 180.724 27.8512 180.673 27.8707 180.626C27.8903 180.579 27.9194 180.537 27.9562 180.502C27.993 180.467 28.0366 180.44 28.0844 180.423C28.1322 180.405 28.1831 180.398 28.2338 180.401C28.294 180.401 34.4946 180.552 39.5153 181.997C39.6123 182.026 39.6939 182.092 39.7423 182.181C39.7908 182.27 39.8022 182.375 39.7741 182.472C39.7507 182.549 39.7028 182.617 39.6377 182.665C39.5725 182.713 39.4937 182.738 39.4129 182.737Z" fill="white"/>
<path d="M181.298 186.464L179.017 185.145C178.636 184.898 178.32 184.565 178.093 184.173C177.866 183.781 177.735 183.34 177.71 182.888V88.0607C177.735 87.6088 177.866 87.1692 178.092 86.7771C178.317 86.3849 178.632 86.0514 179.011 85.8032L242.431 49.1895C242.835 48.9848 243.282 48.8782 243.735 48.8782C244.187 48.8782 244.634 48.9848 245.038 49.1895L247.319 50.5079C247.7 50.7547 248.016 51.0878 248.243 51.4801C248.47 51.8724 248.601 52.3128 248.626 52.7654V147.592C248.601 148.044 248.47 148.484 248.244 148.876C248.019 149.268 247.704 149.602 247.325 149.85L183.905 186.47C183.501 186.675 183.054 186.781 182.601 186.78C182.148 186.779 181.701 186.671 181.298 186.464Z" fill="#455A64"/>
<path d="M248.626 52.5547C248.536 51.8805 247.988 51.6336 247.332 52.0129L183.905 88.6326C183.521 88.8732 183.205 89.2065 182.984 89.6018L178.09 86.7784C178.309 86.3801 178.626 86.0445 179.011 85.8032L242.431 49.1895C242.835 48.9848 243.282 48.8782 243.735 48.8782C244.188 48.8782 244.634 48.9848 245.038 49.1895L247.32 50.5079C247.672 50.7348 247.971 51.0351 248.197 51.3884C248.422 51.7417 248.569 52.1395 248.626 52.5547Z" fill="#455A64"/>
<path d="M183.682 186.572C183.297 186.728 182.882 186.8 182.467 186.782C182.052 186.764 181.645 186.658 181.274 186.47L178.987 185.145C178.608 184.897 178.293 184.563 178.068 184.171C177.842 183.779 177.711 183.34 177.686 182.888V88.0606C177.702 87.608 177.832 87.1667 178.066 86.7784L182.96 89.6018C182.722 89.9906 182.589 90.4345 182.575 90.89V185.717C182.599 186.464 183.068 186.807 183.682 186.572Z" fill="#263238"/>
<path d="M182.599 90.9021V185.717C182.599 186.548 183.201 186.885 183.905 186.47L247.326 149.85C247.704 149.602 248.019 149.268 248.245 148.876C248.471 148.484 248.601 148.044 248.626 147.592V52.7654C248.626 51.9346 248.024 51.5975 247.326 52.0129L183.905 88.6325C183.523 88.8805 183.206 89.2156 182.979 89.6101C182.752 90.0046 182.621 90.4474 182.599 90.9021Z" fill="#37474F"/>
<path d="M167.789 127.022C166.971 126.535 163.172 124.373 162.973 124.259C162.819 124.167 162.686 124.041 162.587 123.89C162.487 123.74 162.423 123.569 162.398 123.391C162.373 123.212 162.388 123.031 162.443 122.859C162.498 122.687 162.591 122.53 162.714 122.399L177.71 106.313L182.599 109.119L167.609 125.216C167.491 125.341 167.401 125.491 167.346 125.653C167.291 125.816 167.271 125.989 167.288 126.16C167.305 126.331 167.359 126.497 167.445 126.645C167.532 126.794 167.649 126.923 167.789 127.022Z" fill="#455A64"/>
<path d="M182.599 109.137L167.609 125.216C167.442 125.394 167.334 125.618 167.297 125.859C167.261 126.099 167.298 126.346 167.404 126.565C167.51 126.784 167.681 126.966 167.892 127.086C168.104 127.206 168.347 127.26 168.59 127.239L182.599 126.083V109.137Z" fill="#37474F"/>
<path d="M215.612 80.1865C223.005 75.9183 228.995 79.3798 228.995 87.9162C228.995 96.4525 223.005 106.825 215.612 111.093C208.22 115.361 202.23 111.9 202.23 103.37C202.23 94.8392 208.22 84.4547 215.612 80.1865Z" fill="#666666"/>
<path d="M215.516 86.9048C217.924 85.5202 219.856 86.64 219.856 89.4092C219.774 90.9145 219.338 92.3792 218.584 93.6846C217.83 94.99 216.779 96.0991 215.516 96.9221C213.108 98.3067 211.169 97.187 211.169 94.4178C211.252 92.9119 211.689 91.4468 212.444 90.1414C213.199 88.836 214.252 87.7272 215.516 86.9048Z" fill="white"/>
<path d="M224.076 101.666C224.076 97.1207 220.88 95.2726 216.943 97.5482L214.48 98.9689C210.543 101.244 207.347 106.795 207.347 111.328V112.574C208.09 112.812 208.866 112.931 209.646 112.929C211.758 112.857 213.815 112.235 215.612 111.123C219.034 109.015 221.929 106.153 224.076 102.755V101.666Z" fill="white"/>
<path d="M207.136 153.348L224.088 143.559C224.811 143.144 225.395 143.481 225.395 144.312V149.772C225.37 150.224 225.239 150.665 225.012 151.057C224.785 151.449 224.469 151.782 224.088 152.029L207.136 161.818C206.414 162.233 205.83 161.896 205.83 161.065V155.605C205.854 155.153 205.986 154.712 206.213 154.32C206.44 153.928 206.756 153.594 207.136 153.348Z" fill="#666666"/>
<path d="M198.835 141.151L232.372 121.779C233.233 121.279 233.937 121.682 233.937 122.682V124.71C233.908 125.253 233.751 125.781 233.479 126.252C233.207 126.723 232.828 127.123 232.372 127.419L198.817 146.792C197.956 147.291 197.257 146.888 197.257 145.889V143.878C197.285 143.331 197.442 142.798 197.716 142.324C197.991 141.85 198.374 141.448 198.835 141.151Z" fill="#FAFAFA"/>
<path d="M202.759 127.13C203.217 126.866 203.572 126.823 203.825 127.01C204.078 127.197 204.204 127.612 204.204 128.25C204.217 128.833 204.087 129.409 203.825 129.93C203.588 130.4 203.218 130.79 202.759 131.049L201.856 131.573V133.518C201.855 133.585 201.838 133.65 201.808 133.71C201.787 133.765 201.749 133.811 201.7 133.843L201.242 134.108C201.227 134.119 201.208 134.126 201.188 134.126C201.169 134.126 201.15 134.119 201.134 134.108C201.102 134.067 201.086 134.015 201.092 133.963V128.334C201.091 128.268 201.106 128.202 201.134 128.142C201.157 128.088 201.194 128.042 201.242 128.009L202.759 127.13ZM201.856 130.484L202.729 129.978C202.94 129.859 203.118 129.689 203.247 129.484C203.384 129.242 203.451 128.967 203.44 128.69C203.44 128.365 203.373 128.178 203.247 128.124C203.158 128.102 203.065 128.101 202.975 128.121C202.885 128.141 202.801 128.181 202.729 128.238L201.856 128.744V130.484Z" fill="#FAFAFA"/>
<path d="M206.727 124.837C206.787 124.801 206.835 124.801 206.865 124.837C206.904 124.891 206.93 124.952 206.943 125.017L208.334 129.725C208.334 129.725 208.334 129.761 208.334 129.779C208.333 129.846 208.317 129.912 208.286 129.972C208.265 130.026 208.227 130.073 208.177 130.104L207.768 130.339C207.696 130.381 207.642 130.387 207.612 130.339C207.582 130.309 207.562 130.272 207.551 130.231L207.305 129.406L205.499 130.441L205.258 131.549C205.241 131.609 205.218 131.668 205.192 131.724C205.162 131.797 205.106 131.857 205.035 131.892L204.626 132.127C204.61 132.14 204.591 132.147 204.571 132.147C204.552 132.147 204.532 132.14 204.517 132.127C204.486 132.088 204.471 132.038 204.475 131.989C204.472 131.967 204.472 131.944 204.475 131.922L205.86 125.613C205.876 125.521 205.903 125.43 205.938 125.343C205.967 125.279 206.016 125.227 206.076 125.192L206.727 124.837ZM207.04 128.485L206.438 126.36L205.836 129.201L207.04 128.485Z" fill="#FAFAFA"/>
<path d="M210.441 122.603C210.642 122.476 210.872 122.4 211.109 122.381C211.277 122.366 211.446 122.403 211.591 122.489C211.723 122.575 211.826 122.699 211.886 122.844C211.951 122.992 211.988 123.152 211.994 123.314C211.998 123.381 211.984 123.447 211.952 123.506C211.931 123.561 211.893 123.607 211.844 123.639L211.446 123.868C211.38 123.904 211.332 123.91 211.302 123.868C211.265 123.843 211.234 123.81 211.212 123.771C211.187 123.717 211.153 123.668 211.109 123.628C211.066 123.588 211.014 123.557 210.959 123.537C210.775 123.51 210.589 123.558 210.441 123.669C210.343 123.732 210.251 123.802 210.164 123.88C210.075 123.962 209.996 124.055 209.929 124.157C209.865 124.255 209.813 124.36 209.773 124.47C209.737 124.574 209.719 124.684 209.719 124.795C209.711 124.896 209.73 124.997 209.773 125.09C209.791 125.122 209.817 125.149 209.849 125.169C209.88 125.189 209.916 125.201 209.953 125.204C210.065 125.223 210.179 125.223 210.29 125.204L210.814 125.09C211.009 125.032 211.213 125.007 211.416 125.017C211.561 125.017 211.703 125.063 211.82 125.15C211.93 125.243 212.009 125.366 212.048 125.505C212.107 125.7 212.134 125.903 212.127 126.107C212.126 126.376 212.088 126.644 212.012 126.902C211.939 127.167 211.831 127.422 211.693 127.66C211.547 127.904 211.374 128.131 211.175 128.334C210.973 128.544 210.742 128.725 210.489 128.87C210.304 128.983 210.1 129.063 209.887 129.105C209.714 129.138 209.535 129.124 209.369 129.063C209.219 128.993 209.095 128.877 209.014 128.732C208.916 128.546 208.862 128.34 208.858 128.13C208.857 128.061 208.871 127.993 208.9 127.931C208.926 127.88 208.966 127.836 209.014 127.805L209.412 127.576C209.472 127.54 209.52 127.528 209.556 127.546C209.592 127.564 209.616 127.594 209.64 127.648C209.665 127.71 209.697 127.769 209.737 127.823C209.774 127.875 209.827 127.915 209.887 127.937C209.966 127.955 210.049 127.955 210.128 127.937C210.256 127.907 210.378 127.856 210.489 127.787C210.606 127.72 210.717 127.644 210.82 127.558C211.023 127.398 211.184 127.191 211.29 126.956C211.338 126.835 211.363 126.707 211.362 126.577C211.368 126.529 211.364 126.482 211.35 126.436C211.337 126.391 211.314 126.348 211.284 126.312C211.251 126.283 211.213 126.262 211.171 126.249C211.13 126.237 211.086 126.233 211.043 126.239C210.906 126.245 210.771 126.267 210.64 126.306C210.483 126.342 210.302 126.384 210.092 126.42C209.931 126.46 209.764 126.473 209.598 126.456C209.468 126.448 209.345 126.395 209.249 126.306C209.145 126.204 209.072 126.074 209.038 125.932C208.99 125.723 208.968 125.509 208.972 125.294C208.972 125.029 209.01 124.766 209.086 124.512C209.158 124.251 209.264 124 209.399 123.765C209.53 123.533 209.687 123.316 209.869 123.121C210.034 122.922 210.227 122.748 210.441 122.603Z" fill="#FAFAFA"/>
<path d="M214.396 120.328C214.596 120.197 214.826 120.118 215.064 120.099C215.232 120.085 215.4 120.123 215.546 120.207C215.675 120.295 215.775 120.419 215.835 120.563C215.901 120.711 215.937 120.87 215.943 121.032C215.95 121.099 215.936 121.167 215.901 121.225C215.88 121.279 215.842 121.326 215.793 121.357L215.395 121.586C215.335 121.622 215.287 121.634 215.251 121.586C215.213 121.562 215.183 121.526 215.167 121.484C215.112 121.378 215.019 121.297 214.908 121.255C214.818 121.242 214.726 121.247 214.639 121.269C214.551 121.292 214.468 121.332 214.396 121.387C214.296 121.449 214.201 121.519 214.113 121.598C214.026 121.68 213.949 121.773 213.884 121.875C213.818 121.972 213.765 122.077 213.728 122.188C213.69 122.292 213.67 122.402 213.668 122.513C213.661 122.614 213.679 122.716 213.722 122.808C213.74 122.84 213.767 122.868 213.798 122.888C213.829 122.908 213.865 122.92 213.902 122.922C214.014 122.942 214.128 122.942 214.24 122.922L214.763 122.808C214.959 122.754 215.162 122.729 215.365 122.736C215.511 122.735 215.652 122.781 215.769 122.868C215.879 122.962 215.96 123.085 216.003 123.223C216.057 123.42 216.081 123.622 216.076 123.825C216.075 124.094 216.037 124.362 215.961 124.62C215.888 124.886 215.781 125.14 215.642 125.379C215.497 125.625 215.323 125.853 215.125 126.059C214.921 126.264 214.693 126.442 214.444 126.589C214.259 126.701 214.055 126.781 213.842 126.823C213.671 126.856 213.494 126.842 213.331 126.781C213.177 126.714 213.05 126.597 212.969 126.45C212.87 126.265 212.819 126.058 212.819 125.848C212.812 125.781 212.827 125.714 212.861 125.656C212.882 125.601 212.92 125.555 212.969 125.523L213.367 125.294C213.427 125.258 213.481 125.246 213.511 125.264C213.532 125.274 213.551 125.288 213.565 125.306C213.58 125.323 213.59 125.344 213.595 125.367C213.623 125.427 213.655 125.486 213.692 125.541C213.731 125.594 213.786 125.634 213.848 125.656C213.928 125.674 214.01 125.674 214.089 125.656C214.217 125.625 214.339 125.575 214.45 125.505C214.564 125.437 214.673 125.36 214.775 125.276C214.881 125.194 214.974 125.096 215.052 124.987C215.13 124.883 215.195 124.77 215.245 124.65C215.293 124.53 215.318 124.401 215.317 124.271C215.323 124.224 215.319 124.176 215.305 124.13C215.292 124.085 215.269 124.043 215.239 124.006C215.206 123.977 215.168 123.956 215.126 123.944C215.085 123.931 215.041 123.928 214.998 123.934C214.864 123.942 214.731 123.964 214.601 124C214.444 124.036 214.258 124.078 214.053 124.114C213.89 124.155 213.721 124.167 213.553 124.151C213.423 124.144 213.299 124.09 213.204 124C213.102 123.898 213.031 123.768 212.999 123.627C212.946 123.421 212.922 123.208 212.927 122.995C212.929 122.728 212.968 122.463 213.042 122.206C213.116 121.946 213.221 121.695 213.355 121.46C213.485 121.225 213.645 121.009 213.83 120.815C213.992 120.624 214.183 120.46 214.396 120.328Z" fill="#FAFAFA"/>
<path d="M218.785 121.08L218.297 123.964C218.283 124.051 218.259 124.135 218.225 124.217C218.202 124.282 218.157 124.337 218.099 124.373L217.641 124.638C217.581 124.674 217.539 124.674 217.509 124.638C217.468 124.589 217.445 124.527 217.442 124.464L216.72 119.377C216.72 119.377 216.72 119.329 216.72 119.31C216.722 119.244 216.738 119.178 216.768 119.118C216.791 119.064 216.829 119.018 216.876 118.985L217.292 118.745C217.327 118.731 217.365 118.731 217.4 118.745C217.436 118.745 217.46 118.793 217.472 118.889L217.948 122.314L218.363 119.744C218.374 119.68 218.392 119.617 218.418 119.557C218.441 119.481 218.493 119.417 218.562 119.377L219.026 119.106C219.092 119.07 219.14 119.076 219.17 119.106C219.196 119.144 219.214 119.187 219.224 119.232L219.646 121.321L220.121 117.348C220.127 117.27 220.15 117.194 220.187 117.125C220.216 117.08 220.252 117.041 220.296 117.011L220.711 116.77C220.727 116.758 220.746 116.752 220.765 116.752C220.785 116.752 220.804 116.758 220.82 116.77C220.837 116.79 220.85 116.813 220.858 116.837C220.866 116.862 220.87 116.888 220.868 116.915C220.87 116.939 220.87 116.963 220.868 116.987L220.145 122.904C220.133 122.991 220.111 123.076 220.079 123.157C220.052 123.222 220.005 123.276 219.947 123.314L219.483 123.579C219.429 123.609 219.387 123.609 219.357 123.579C219.326 123.523 219.302 123.465 219.284 123.404L218.785 121.08Z" fill="#FAFAFA"/>
<path d="M221.602 118.528C221.615 118.194 221.656 117.862 221.722 117.535C221.791 117.215 221.896 116.904 222.035 116.608C222.168 116.32 222.338 116.05 222.541 115.807C222.747 115.565 222.994 115.362 223.27 115.205C223.482 115.061 223.73 114.98 223.986 114.97C224.177 114.972 224.36 115.048 224.498 115.181C224.644 115.345 224.749 115.541 224.805 115.753C224.882 116.029 224.925 116.314 224.931 116.602C224.931 116.71 224.931 116.83 224.931 116.963C224.931 117.095 224.931 117.234 224.931 117.378C224.931 117.523 224.931 117.661 224.931 117.793C224.931 117.926 224.931 118.052 224.931 118.167C224.918 118.499 224.878 118.829 224.811 119.154C224.741 119.473 224.638 119.784 224.504 120.081C224.367 120.368 224.195 120.637 223.992 120.882C223.786 121.121 223.542 121.324 223.27 121.484C223.053 121.627 222.801 121.708 222.541 121.719C222.447 121.72 222.354 121.703 222.267 121.668C222.18 121.633 222.102 121.58 222.035 121.514C221.878 121.345 221.77 121.137 221.722 120.912C221.651 120.634 221.61 120.35 221.602 120.063C221.602 119.955 221.602 119.834 221.602 119.702C221.602 119.569 221.602 119.431 221.602 119.286C221.602 119.142 221.602 119.01 221.602 118.871C221.602 118.733 221.596 118.636 221.602 118.528ZM224.167 117.089C224.18 116.942 224.163 116.793 224.118 116.653C224.072 116.512 223.999 116.382 223.902 116.27C223.745 116.132 223.528 116.138 223.27 116.27C222.989 116.436 222.766 116.684 222.631 116.981C222.461 117.332 222.37 117.716 222.367 118.107C222.367 118.329 222.367 118.576 222.367 118.847C222.367 119.118 222.367 119.359 222.367 119.575C222.353 119.723 222.37 119.871 222.415 120.012C222.461 120.153 222.534 120.283 222.631 120.394C222.788 120.527 223.005 120.515 223.27 120.364C223.546 120.198 223.766 119.952 223.902 119.66C224.072 119.311 224.163 118.928 224.167 118.54C224.167 118.311 224.167 118.064 224.167 117.793C224.167 117.523 224.173 117.306 224.167 117.089Z" fill="#FAFAFA"/>
<path d="M227.556 112.803C228.031 112.532 228.386 112.49 228.633 112.689C228.78 112.85 228.888 113.041 228.952 113.249C229.015 113.458 229.032 113.677 229.001 113.893C229.005 114.301 228.942 114.708 228.814 115.097C228.692 115.458 228.502 115.793 228.254 116.084L229.037 117.787C229.039 117.815 229.039 117.844 229.037 117.872C229.037 117.926 229.025 117.98 229.001 118.028C228.984 118.072 228.955 118.11 228.916 118.137L228.435 118.414C228.356 118.456 228.302 118.462 228.266 118.414C228.234 118.382 228.208 118.345 228.188 118.305L227.447 116.698L226.695 117.131V119.166C226.695 119.233 226.681 119.298 226.653 119.359C226.628 119.411 226.591 119.456 226.544 119.491L226.087 119.756C226.072 119.769 226.052 119.776 226.033 119.776C226.013 119.776 225.994 119.769 225.978 119.756C225.961 119.738 225.948 119.716 225.94 119.692C225.931 119.668 225.928 119.643 225.93 119.618V113.989C225.932 113.922 225.949 113.856 225.978 113.796C226 113.742 226.038 113.695 226.087 113.664L227.556 112.803ZM226.707 116.042L227.556 115.584C227.763 115.468 227.94 115.305 228.073 115.109C228.213 114.877 228.28 114.608 228.266 114.338C228.266 114.013 228.2 113.832 228.073 113.796C227.89 113.771 227.704 113.819 227.556 113.929L226.737 114.398L226.707 116.042Z" fill="#FAFAFA"/>
<path d="M231.589 110.485C231.808 110.343 232.058 110.256 232.318 110.232C232.506 110.225 232.69 110.292 232.83 110.419C232.989 110.587 233.099 110.795 233.149 111.021C233.23 111.319 233.274 111.627 233.281 111.936C233.281 112.357 233.281 112.791 233.281 113.23C233.269 113.589 233.224 113.945 233.149 114.296C233.08 114.622 232.975 114.939 232.836 115.241C232.701 115.519 232.531 115.778 232.33 116.012C232.129 116.251 231.889 116.454 231.62 116.614L230.193 117.39C230.178 117.403 230.158 117.41 230.139 117.41C230.119 117.41 230.1 117.403 230.084 117.39C230.067 117.372 230.053 117.35 230.045 117.326C230.037 117.302 230.034 117.277 230.036 117.252V111.623C230.038 111.556 230.054 111.49 230.084 111.43C230.106 111.376 230.144 111.329 230.193 111.298L231.589 110.485ZM232.516 112.357C232.514 112.194 232.49 112.032 232.444 111.876C232.416 111.757 232.356 111.649 232.27 111.563C232.232 111.525 232.187 111.495 232.137 111.476C232.087 111.456 232.034 111.447 231.981 111.448C231.83 111.458 231.685 111.508 231.559 111.593L230.801 112.026V115.951L231.589 115.5C231.742 115.411 231.878 115.297 231.993 115.163C232.105 115.031 232.2 114.885 232.276 114.729C232.351 114.563 232.407 114.39 232.444 114.212C232.486 114.026 232.51 113.836 232.516 113.646C232.535 113.206 232.535 112.779 232.516 112.357Z" fill="#FAFAFA"/>
<path d="M148.923 23.1108C149.962 23.342 150.963 23.719 151.897 24.2305C152.791 24.7111 153.592 25.3471 154.263 26.1087C154.904 26.8414 155.381 27.7038 155.659 28.6371C155.943 29.6362 155.964 30.6918 155.719 31.7013C155.558 32.5017 155.241 33.2625 154.786 33.9408C154.371 34.5207 153.877 35.0395 153.317 35.4819C152.768 35.9084 152.182 36.2851 151.566 36.6076L149.832 37.5287C149.31 37.8011 148.814 38.1215 148.351 38.4859C147.932 38.8071 147.611 39.2386 147.424 39.732C147.332 39.9574 147.18 40.1532 146.984 40.2979C146.892 40.3698 146.784 40.4197 146.669 40.4437C146.554 40.4677 146.436 40.4651 146.322 40.4363L143.77 39.8705C143.647 39.8447 143.53 39.7947 143.427 39.7234C143.323 39.652 143.235 39.5608 143.168 39.4551C143.096 39.3568 143.048 39.2429 143.028 39.1226C143.008 39.0023 143.017 38.879 143.053 38.7628C143.259 37.9723 143.621 37.2312 144.119 36.5835C144.573 36.0107 145.099 35.4987 145.684 35.0605C146.254 34.6432 146.858 34.2747 147.49 33.9588C148.092 33.6518 148.694 33.3568 149.218 33.0618C149.705 32.8 150.163 32.4872 150.584 32.1287C150.954 31.8193 151.21 31.3957 151.313 30.9247C151.408 30.5157 151.404 30.0896 151.299 29.6828C151.194 29.2761 150.992 28.9007 150.711 28.589C150.007 27.8204 149.066 27.3096 148.038 27.1382C146.136 26.7168 144.53 27.3569 143.222 29.0585C143.096 29.2443 142.936 29.4054 142.752 29.5341C142.544 29.6371 142.304 29.6544 142.084 29.5823L139.369 28.9803C139.175 28.9429 139.004 28.8303 138.893 28.6672C138.834 28.5801 138.794 28.4812 138.777 28.3774C138.759 28.2735 138.764 28.167 138.791 28.0652C139.022 27.2287 139.451 26.4604 140.043 25.8258C140.711 25.0898 141.504 24.4783 142.385 24.0198C143.349 23.5156 144.388 23.17 145.461 22.9964C146.612 22.8093 147.787 22.8481 148.923 23.1108ZM146.039 42.4831C146.278 42.5392 146.485 42.6865 146.617 42.8935C146.749 43.1005 146.794 43.3508 146.744 43.5908L146.093 46.5406C146.071 46.6641 146.024 46.7816 145.953 46.8853C145.882 46.9891 145.791 47.0767 145.684 47.1426C145.583 47.2121 145.469 47.2598 145.349 47.2826C145.229 47.3054 145.105 47.3028 144.986 47.2751L142.072 46.6068C141.948 46.5859 141.83 46.5386 141.726 46.4679C141.622 46.3973 141.535 46.305 141.47 46.1975C141.403 46.0958 141.357 45.9814 141.335 45.8613C141.313 45.7413 141.316 45.618 141.344 45.4992L142 42.5494C142.056 42.3102 142.203 42.1023 142.41 41.9697C142.616 41.8371 142.867 41.7903 143.107 41.839L146.039 42.4831Z" fill="#666666"/>
<path d="M152.137 51.3506C152.862 51.2343 153.6 51.2202 154.329 51.3085C155.025 51.3912 155.701 51.595 156.327 51.9105C156.924 52.2198 157.449 52.6504 157.868 53.1747C158.246 53.6878 158.512 54.2743 158.649 54.8964C158.786 55.5186 158.79 56.1625 158.663 56.7867C158.548 57.2666 158.364 57.727 158.115 58.1532C157.876 58.5678 157.598 58.9588 157.285 59.3211C156.978 59.6823 156.683 60.0254 156.412 60.3565C156.146 60.665 155.911 60.9976 155.707 61.3498C155.517 61.6586 155.42 62.0165 155.43 62.3793C155.425 62.5488 155.378 62.7144 155.292 62.8609C155.248 62.9284 155.191 62.9858 155.124 63.0294C155.056 63.073 154.98 63.1017 154.901 63.1137L153.095 63.4027C153.01 63.418 152.924 63.4163 152.84 63.3977C152.756 63.3791 152.677 63.3439 152.607 63.2943C152.536 63.2496 152.476 63.1886 152.433 63.1164C152.391 63.0442 152.365 62.9628 152.36 62.8789C152.285 62.3187 152.326 61.749 152.481 61.2054C152.622 60.7241 152.824 60.2629 153.083 59.8328C153.336 59.42 153.626 59.0312 153.949 58.6709C154.269 58.3097 154.551 57.9726 154.828 57.6475C155.076 57.3572 155.29 57.0402 155.467 56.7024C155.623 56.4116 155.68 56.0775 155.629 55.7512C155.584 55.4641 155.47 55.192 155.297 54.9583C155.124 54.7246 154.897 54.5361 154.636 54.4088C153.989 54.0962 153.256 54.0072 152.553 54.1559C151.916 54.249 151.324 54.5368 150.857 54.9798C150.391 55.4227 150.072 55.9992 149.946 56.6302C149.911 56.7819 149.85 56.9265 149.766 57.0576C149.658 57.1719 149.512 57.2426 149.356 57.2562L147.454 57.5633C147.32 57.5889 147.182 57.5607 147.069 57.485C147.011 57.4452 146.962 57.3934 146.926 57.3332C146.889 57.273 146.866 57.2057 146.858 57.1358C146.801 56.5385 146.894 55.9364 147.129 55.384C147.367 54.7413 147.717 54.146 148.164 53.6262C148.654 53.057 149.231 52.5693 149.874 52.1814C150.568 51.7607 151.336 51.4786 152.137 51.3506ZM155.244 64.5043C155.327 64.4912 155.411 64.4945 155.493 64.5141C155.575 64.5338 155.652 64.5693 155.719 64.6187C155.79 64.6653 155.851 64.7265 155.896 64.7981C155.942 64.8696 155.972 64.9501 155.984 65.0341L156.321 67.0989C156.347 67.2664 156.306 67.4375 156.207 67.575C156.108 67.7125 155.959 67.8053 155.792 67.8334L153.775 68.1645C153.607 68.1904 153.437 68.1493 153.299 68.0501C153.229 68.0029 153.17 67.9415 153.126 67.8699C153.081 67.7984 153.052 67.7182 153.04 67.6347L152.703 65.5699C152.688 65.487 152.69 65.4019 152.71 65.3199C152.73 65.238 152.766 65.1611 152.818 65.0943C152.865 65.0245 152.926 64.9653 152.998 64.9207C153.069 64.8761 153.15 64.8471 153.233 64.8354L155.244 64.5043Z" fill="#666666"/>
<g opacity="0.2">
<path d="M152.137 51.3506C152.862 51.2343 153.6 51.2202 154.329 51.3085C155.025 51.3912 155.701 51.595 156.327 51.9105C156.924 52.2198 157.449 52.6504 157.868 53.1747C158.246 53.6878 158.512 54.2743 158.649 54.8964C158.786 55.5186 158.79 56.1625 158.663 56.7867C158.548 57.2666 158.364 57.727 158.115 58.1532C157.876 58.5678 157.598 58.9588 157.285 59.3211C156.978 59.6823 156.683 60.0254 156.412 60.3565C156.146 60.665 155.911 60.9976 155.707 61.3498C155.517 61.6586 155.42 62.0165 155.43 62.3793C155.425 62.5488 155.378 62.7144 155.292 62.8609C155.248 62.9284 155.191 62.9858 155.124 63.0294C155.056 63.073 154.98 63.1017 154.901 63.1137L153.095 63.4027C153.01 63.418 152.924 63.4163 152.84 63.3977C152.756 63.3791 152.677 63.3439 152.607 63.2943C152.536 63.2496 152.476 63.1886 152.433 63.1164C152.391 63.0442 152.365 62.9628 152.36 62.8789C152.285 62.3187 152.326 61.749 152.481 61.2054C152.622 60.7241 152.824 60.2629 153.083 59.8328C153.336 59.42 153.626 59.0312 153.949 58.6709C154.269 58.3097 154.551 57.9726 154.828 57.6475C155.076 57.3572 155.29 57.0402 155.467 56.7024C155.623 56.4116 155.68 56.0775 155.629 55.7512C155.584 55.4641 155.47 55.192 155.297 54.9583C155.124 54.7246 154.897 54.5361 154.636 54.4088C153.989 54.0962 153.256 54.0072 152.553 54.1559C151.916 54.249 151.324 54.5368 150.857 54.9798C150.391 55.4227 150.072 55.9992 149.946 56.6302C149.911 56.7819 149.85 56.9265 149.766 57.0576C149.658 57.1719 149.512 57.2426 149.356 57.2562L147.454 57.5633C147.32 57.5889 147.182 57.5607 147.069 57.485C147.011 57.4452 146.962 57.3934 146.926 57.3332C146.889 57.273 146.866 57.2057 146.858 57.1358C146.801 56.5385 146.894 55.9364 147.129 55.384C147.367 54.7413 147.717 54.146 148.164 53.6262C148.654 53.057 149.231 52.5693 149.874 52.1814C150.568 51.7607 151.336 51.4786 152.137 51.3506ZM155.244 64.5043C155.327 64.4912 155.411 64.4945 155.493 64.5141C155.575 64.5338 155.652 64.5693 155.719 64.6187C155.79 64.6653 155.851 64.7265 155.896 64.7981C155.942 64.8696 155.972 64.9501 155.984 65.0341L156.321 67.0989C156.347 67.2664 156.306 67.4375 156.207 67.575C156.108 67.7125 155.959 67.8053 155.792 67.8334L153.775 68.1645C153.607 68.1904 153.437 68.1493 153.299 68.0501C153.229 68.0029 153.17 67.9415 153.126 67.8699C153.081 67.7984 153.052 67.7182 153.04 67.6347L152.703 65.5699C152.688 65.487 152.69 65.4019 152.71 65.3199C152.73 65.238 152.766 65.1611 152.818 65.0943C152.865 65.0245 152.926 64.9653 152.998 64.9207C153.069 64.8761 153.15 64.8471 153.233 64.8354L155.244 64.5043Z" fill="black"/>
</g>
<path d="M169.162 54.5954C169.244 54.6524 169.314 54.7257 169.366 54.8105C169.419 54.8954 169.454 54.9902 169.469 55.089C169.488 55.187 169.487 55.2878 169.465 55.3852C169.443 55.4826 169.402 55.5744 169.343 55.6549L167.91 57.6716C167.853 57.7537 167.78 57.8232 167.695 57.876C167.61 57.9288 167.515 57.9637 167.416 57.9786C167.318 57.9978 167.217 57.9964 167.12 57.9747C167.023 57.9529 166.931 57.9112 166.85 57.8522L164.876 56.4495C164.793 56.3932 164.724 56.3201 164.672 56.235C164.62 56.1499 164.587 56.0548 164.575 55.9559C164.556 55.858 164.557 55.7571 164.579 55.6597C164.6 55.5623 164.642 55.4705 164.701 55.39L166.152 53.3733C166.269 53.2099 166.446 53.0992 166.645 53.0654C166.843 53.0316 167.047 53.0774 167.211 53.1927L169.162 54.5954ZM177.494 40.936C178.214 41.4406 178.855 42.0492 179.396 42.742C179.924 43.3865 180.332 44.1205 180.6 44.9092C180.85 45.665 180.934 46.4658 180.847 47.257C180.745 48.1008 180.425 48.9036 179.92 49.5868C179.544 50.1391 179.061 50.6101 178.499 50.9713C178.004 51.2814 177.467 51.5167 176.904 51.6697C176.355 51.8131 175.795 51.9097 175.23 51.9586L173.629 52.1031C173.149 52.1415 172.673 52.2241 172.208 52.3499C171.779 52.4473 171.387 52.6644 171.076 52.976C170.936 53.1184 170.759 53.2185 170.565 53.265C170.472 53.2915 170.375 53.2955 170.281 53.2766C170.186 53.2578 170.098 53.2166 170.023 53.1566L168.277 51.9165C168.11 51.7973 167.996 51.6183 167.958 51.4168C167.935 51.3192 167.936 51.2176 167.96 51.1204C167.984 51.0231 168.031 50.9329 168.096 50.857C168.504 50.3278 169.014 49.8856 169.595 49.5567C170.119 49.2708 170.677 49.0542 171.257 48.9125C171.816 48.7768 172.386 48.6902 172.961 48.6537C173.526 48.6175 174.056 48.5754 174.55 48.5272C175.002 48.4873 175.448 48.3985 175.88 48.2623C176.259 48.1363 176.585 47.8887 176.807 47.558C177.009 47.2788 177.139 46.9551 177.189 46.6144C177.238 46.2738 177.204 45.9263 177.09 45.6015C176.806 44.7992 176.261 44.1148 175.543 43.657C174.243 42.73 172.824 42.6999 171.287 43.5668C171.132 43.6652 170.961 43.7346 170.781 43.7714C170.688 43.7779 170.594 43.7659 170.505 43.7359C170.416 43.7059 170.334 43.6587 170.264 43.5968L168.409 42.2785C168.342 42.2339 168.285 42.1763 168.24 42.1091C168.196 42.0419 168.165 41.9664 168.151 41.8872C168.136 41.8052 168.139 41.7212 168.159 41.6404C168.178 41.5596 168.215 41.4837 168.265 41.4176C168.702 40.8571 169.271 40.4126 169.92 40.1233C170.658 39.789 171.449 39.5853 172.256 39.5213C173.145 39.4471 174.039 39.5182 174.905 39.732C175.839 39.9571 176.719 40.3665 177.494 40.936Z" fill="#666666"/>
<g opacity="0.6">
<path d="M169.162 54.5954C169.244 54.6524 169.314 54.7257 169.366 54.8105C169.419 54.8954 169.454 54.9902 169.469 55.089C169.488 55.187 169.487 55.2878 169.465 55.3852C169.443 55.4826 169.402 55.5744 169.343 55.6549L167.91 57.6716C167.853 57.7537 167.78 57.8232 167.695 57.876C167.61 57.9288 167.515 57.9637 167.416 57.9786C167.318 57.9978 167.217 57.9964 167.12 57.9747C167.023 57.9529 166.931 57.9112 166.85 57.8522L164.876 56.4495C164.793 56.3932 164.724 56.3201 164.672 56.235C164.62 56.1499 164.587 56.0548 164.575 55.9559C164.556 55.858 164.557 55.7571 164.579 55.6597C164.6 55.5623 164.642 55.4705 164.701 55.39L166.152 53.3733C166.269 53.2099 166.446 53.0992 166.645 53.0654C166.843 53.0316 167.047 53.0774 167.211 53.1927L169.162 54.5954ZM177.494 40.936C178.214 41.4406 178.855 42.0492 179.396 42.742C179.924 43.3865 180.332 44.1205 180.6 44.9092C180.85 45.665 180.934 46.4658 180.847 47.257C180.745 48.1008 180.425 48.9036 179.92 49.5868C179.544 50.1391 179.061 50.6101 178.499 50.9713C178.004 51.2814 177.467 51.5167 176.904 51.6697C176.355 51.8131 175.795 51.9097 175.23 51.9586L173.629 52.1031C173.149 52.1415 172.673 52.2241 172.208 52.3499C171.779 52.4473 171.387 52.6644 171.076 52.976C170.936 53.1184 170.759 53.2185 170.565 53.265C170.472 53.2915 170.375 53.2955 170.281 53.2766C170.186 53.2578 170.098 53.2166 170.023 53.1566L168.277 51.9165C168.11 51.7973 167.996 51.6183 167.958 51.4168C167.935 51.3192 167.936 51.2176 167.96 51.1204C167.984 51.0231 168.031 50.9329 168.096 50.857C168.504 50.3278 169.014 49.8856 169.595 49.5567C170.119 49.2708 170.677 49.0542 171.257 48.9125C171.816 48.7768 172.386 48.6902 172.961 48.6537C173.526 48.6175 174.056 48.5754 174.55 48.5272C175.002 48.4873 175.448 48.3985 175.88 48.2623C176.259 48.1363 176.585 47.8887 176.807 47.558C177.009 47.2788 177.139 46.9551 177.189 46.6144C177.238 46.2738 177.204 45.9263 177.09 45.6015C176.806 44.7992 176.261 44.1148 175.543 43.657C174.243 42.73 172.824 42.6999 171.287 43.5668C171.132 43.6652 170.961 43.7346 170.781 43.7714C170.688 43.7779 170.594 43.7659 170.505 43.7359C170.416 43.7059 170.334 43.6587 170.264 43.5968L168.409 42.2785C168.342 42.2339 168.285 42.1763 168.24 42.1091C168.196 42.0419 168.165 41.9664 168.151 41.8872C168.136 41.8052 168.139 41.7212 168.159 41.6404C168.178 41.5596 168.215 41.4837 168.265 41.4176C168.702 40.8571 169.271 40.4126 169.92 40.1233C170.658 39.789 171.449 39.5853 172.256 39.5213C173.145 39.4471 174.039 39.5182 174.905 39.732C175.839 39.9571 176.719 40.3665 177.494 40.936Z" fill="#0A0A0A"/>
</g>
<path d="M124.331 107.884H102.942V56.0642C102.942 51.5634 104.73 47.2469 107.913 44.0644C111.095 40.8818 115.412 39.0939 119.913 39.0939H121.887C126.388 39.0939 130.704 40.8818 133.887 44.0644C137.07 47.2469 138.857 51.5634 138.857 56.0642V93.3882C138.849 97.2356 137.316 100.923 134.592 103.64C131.869 106.358 128.179 107.884 124.331 107.884Z" fill="#263238"/>
<path d="M100.859 232.637C100.481 234.784 100.28 236.958 100.257 239.138C100.179 243.088 99.4566 244.49 99.3603 247.729C99.2459 251.431 99.8901 252.816 101.389 254.899C102.888 256.982 106.807 258.866 108.505 255.35C110.202 251.835 109.956 249.529 109.42 245.899C108.872 242.142 108.818 240.066 108.481 237.206C108.204 234.684 107.879 232.763 107.879 232.763L100.859 232.637Z" fill="#263238"/>
<path d="M112.068 206.408L99.0652 206.173C99.2578 214.854 100.636 224.492 100.871 232.661C100.919 234.196 100.835 244.575 101.413 247.711C102.286 252.455 107.909 251.811 108.21 248.975C108.511 246.14 107.848 234.021 107.866 232.769C107.812 227.544 110.274 218.725 111.545 209.345C111.599 208.894 112.008 206.859 112.068 206.408Z" fill="#FFA8A7"/>
<path d="M128.774 225.882C128.774 225.882 128.262 225.606 128.172 226.153C128.046 226.804 127.853 228.146 127.57 229.218C127.197 230.704 126.884 233.155 127.106 234.371C127.329 235.587 130.159 237.14 131.995 237.706C134.258 238.404 136.321 239.632 138.015 241.288C139.821 242.997 143.752 244.611 146.443 244.593C149.603 244.593 151.806 243.539 152.848 241.848C153.889 240.156 151.897 239.951 148.285 237.634L145.485 235.828C139.76 232.089 137.659 230.09 136.052 226.352L128.774 225.882Z" fill="#263238"/>
<path d="M136.1 223.565C136.004 220.88 137.858 198.058 137.858 198.058L125.511 203.687C128.154 219.471 128.72 223.198 128.762 225.78C128.708 225.996 128.685 226.22 128.696 226.442C128.696 229.506 132.169 231.162 134.866 233.209C137.159 235.005 139.602 236.6 142.168 237.977C144.131 238.958 148.116 239.048 148.61 237.79C145.323 235.28 140.543 231.523 137.93 228.658C136.654 227.309 136.196 226.256 136.1 223.565Z" fill="#FFA8A7"/>
<path d="M104.393 121.7C99.6492 132.109 99.6492 140.164 100.438 153.45C101.136 165.64 102.298 176.386 102.298 176.386C102.117 178.547 99.1135 182.767 98.7222 192.327C98.361 201.261 99.3242 212.62 99.3242 212.62C99.3242 212.62 106.073 216.359 111.063 212.584C111.063 212.584 115.879 189.594 117.288 178.409C118.492 168.65 120.659 156.183 120.659 156.183L125.216 178.342C124.233 181.487 123.52 184.709 123.085 187.974C122.447 194.554 126.131 207.473 126.131 207.473C126.131 207.473 133.102 209.55 137.359 205.776C137.359 205.776 138.948 184.772 139.544 176.849C140.338 166.236 138.665 137.509 137.359 122.296L104.393 121.7Z" fill="#455A64"/>
<path d="M120.671 156.165L122.543 139.465C122.543 139.465 130.935 138.346 134.74 134.77C133.651 136.473 132.2 137.917 130.491 138.996C128.781 140.076 126.855 140.767 124.849 141.019L122.14 156.556L125.216 178.343L120.671 156.165Z" fill="#263238"/>
<path d="M154.654 117.595C155.001 114.547 155.153 111.481 155.111 108.414C154.925 105.765 154.449 105.332 150.747 100.642C145.75 94.3033 141.482 88.6023 136.967 82.9375C133.74 78.8921 130.345 78.272 127.046 78.4526C124.734 78.579 129.249 89.698 131.519 96.2778L144.48 110.232C144.882 110.783 145.066 111.462 144.998 112.141L144.215 124.012L148.098 129.213C148.098 129.213 153.98 124.144 154.654 117.595Z" fill="#FFA8A7"/>
<path d="M114.549 78.8138C112.038 78.9884 107.475 79.4158 107.475 79.4158C104.844 80.8847 104.176 82.0947 103.688 85.5863C103.478 87.0793 104.694 91.0465 105.735 96.6872L107.71 107.144L107.493 112.333C106.47 115.5 104.152 119.431 102.105 125.228C112.159 130.839 120.587 131.049 128.232 130.044C134.059 129.292 137.148 127.883 138.177 126.486C137.96 120.761 137.575 117.221 137.455 111.238C137.413 108.727 137.563 106.187 137.665 103.297C141.572 100.082 141.62 94.7367 139.471 91.2572C134.517 83.2325 129.695 78.1817 126.504 78.4406L114.549 78.8138Z" fill="#666666"/>
<path opacity="0.6" d="M114.549 78.8138C112.038 78.9884 107.475 79.4158 107.475 79.4158C104.844 80.8847 104.176 82.0947 103.688 85.5863C103.478 87.0793 104.694 91.0465 105.735 96.6872L107.71 107.144L107.493 112.333C106.47 115.5 104.152 119.431 102.105 125.228C112.159 130.839 120.587 131.049 128.232 130.044C134.059 129.292 137.148 127.883 138.177 126.486C137.96 120.761 137.575 117.221 137.455 111.238C137.413 108.727 137.563 106.187 137.665 103.297C141.572 100.082 141.62 94.7367 139.471 91.2572C134.517 83.2325 129.695 78.1817 126.504 78.4406L114.549 78.8138Z" fill="white"/>
<path opacity="0.1" d="M129.882 103.375C129.882 103.375 125.294 106.939 120.051 105.079C118.579 104.615 117.251 103.779 116.196 102.652C115.142 101.524 114.396 100.144 114.031 98.6437C114.031 98.6437 113.477 104.634 120.081 106.674C126.48 108.643 129.882 103.375 129.882 103.375Z" fill="black"/>
<path d="M136.106 62.3732C135.908 71.0661 133.096 73.2092 131.676 73.8112C130.255 74.4132 127.534 74.052 124.885 73.6126V78.862C124.885 78.862 127.943 82.0646 127.714 84.4546C127.486 86.8445 122.898 87.1154 119.479 84.7736C117.592 83.4777 115.886 81.9371 114.404 80.1924C114.12 79.8558 113.964 79.4291 113.965 78.9884V66.7076C113.965 66.7076 112.514 68.2427 109.949 66.4849C109.396 66.1317 108.922 65.6673 108.558 65.1212C108.194 64.575 107.947 63.9591 107.834 63.3125C107.721 62.6659 107.743 62.0028 107.9 61.3654C108.057 60.728 108.345 60.1302 108.745 59.61C109.865 58.2917 112.707 58.2014 114.067 60.212C114.838 61.711 114.94 63.222 115.801 62.62C118.088 60.9706 116.86 57.202 119.624 55.396C120.53 54.9228 121.472 54.5202 122.441 54.192C127.371 52.4884 131.645 51.0556 132.675 47.6844C134.613 48.7921 136.347 52.1212 136.106 62.3732Z" fill="#FFA8A7"/>
<path d="M126.384 70.139C127.016 70.139 127.528 69.6269 127.528 68.9952C127.528 68.3635 127.016 67.8514 126.384 67.8514C125.752 67.8514 125.24 68.3635 125.24 68.9952C125.24 69.6269 125.752 70.139 126.384 70.139Z" fill="#B16668"/>
<path d="M125.626 61.0548C125.625 61.2903 125.556 61.5206 125.426 61.7171C125.296 61.9136 125.112 62.0676 124.895 62.1603C124.679 62.2529 124.44 62.28 124.208 62.2382C123.976 62.1964 123.762 62.0876 123.591 61.9252C123.421 61.7628 123.301 61.5539 123.248 61.3245C123.195 61.095 123.211 60.8551 123.293 60.6343C123.375 60.4135 123.52 60.2216 123.71 60.0824C123.9 59.9431 124.126 59.8626 124.361 59.8508C124.524 59.8427 124.687 59.8678 124.841 59.9246C124.994 59.9815 125.134 60.0688 125.252 60.1815C125.37 60.2941 125.464 60.4296 125.528 60.5797C125.593 60.7299 125.626 60.8915 125.626 61.0548Z" fill="#263238"/>
<path d="M134.746 61.1752C134.758 61.3225 134.741 61.4708 134.696 61.6114C134.65 61.752 134.577 61.8821 134.48 61.9942C134.384 62.1063 134.266 62.198 134.134 62.2641C134.002 62.3302 133.858 62.3694 133.71 62.3792C133.562 62.393 133.412 62.3749 133.27 62.3262C133.129 62.2775 133 62.1994 132.891 62.0969C132.782 61.9944 132.697 61.87 132.64 61.7318C132.583 61.5937 132.556 61.445 132.561 61.2956C132.545 61.1473 132.56 60.9973 132.605 60.8549C132.649 60.7125 132.722 60.5806 132.819 60.4675C132.917 60.3543 133.036 60.2622 133.17 60.1968C133.304 60.1314 133.45 60.0941 133.599 60.0871C133.748 60.0801 133.897 60.1036 134.037 60.1562C134.176 60.2088 134.304 60.2894 134.411 60.393C134.518 60.4965 134.603 60.6209 134.661 60.7586C134.719 60.8962 134.748 61.0441 134.746 61.1933V61.1752Z" fill="#263238"/>
<path d="M124.078 64.1491C123.04 64.1491 122.044 63.7371 121.309 63.0034C120.575 62.2698 120.161 61.2745 120.159 60.2361C120.159 57.5753 122.905 57.5753 124.078 57.5753C125.252 57.5753 127.991 57.5753 127.991 60.2361C127.99 61.2734 127.577 62.2678 126.844 63.0013C126.11 63.7348 125.116 64.1475 124.078 64.1491ZM124.078 58.1893C121.67 58.1893 120.779 58.7913 120.779 60.2361C120.779 61.1143 121.128 61.9564 121.749 62.5774C122.37 63.1983 123.212 63.5471 124.09 63.5471C124.969 63.5471 125.811 63.1983 126.432 62.5774C127.053 61.9564 127.401 61.1143 127.401 60.2361C127.377 58.7612 126.45 58.1893 124.078 58.1893Z" fill="#455A64"/>
<path d="M134.017 64.1491C132.979 64.1491 131.983 63.7371 131.248 63.0034C130.514 62.2698 130.1 61.2745 130.098 60.2361C130.098 57.5753 132.844 57.5753 134.017 57.5753C135.191 57.5753 137.93 57.5753 137.93 60.2361C137.929 61.2734 137.516 62.2678 136.783 63.0013C136.049 63.7348 135.055 64.1475 134.017 64.1491ZM134.017 58.1893C131.646 58.1893 130.718 58.7913 130.718 60.2361C130.718 61.1143 131.067 61.9564 131.688 62.5774C132.309 63.1983 133.151 63.5471 134.029 63.5471C134.908 63.5471 135.75 63.1983 136.371 62.5774C136.992 61.9564 137.34 61.1143 137.34 60.2361C137.316 58.7612 136.389 58.1893 134.017 58.1893Z" fill="#455A64"/>
<path d="M128.599 58.9719L128.792 66.2862L132.639 65.0942L128.599 58.9719Z" fill="#F28F8F"/>
<path d="M124.879 73.6306C122.086 73.2634 116.337 71.6139 115.44 69.3383C115.801 70.4884 116.504 71.5007 117.456 72.24C119.172 73.7149 124.879 75.3704 124.879 75.3704V73.6306Z" fill="#F28F8F"/>
<path d="M125.017 55.4201L122.465 56.9793C122.264 56.6289 122.205 56.2145 122.302 55.8221C122.398 55.4297 122.642 55.0896 122.983 54.8723C123.151 54.7701 123.338 54.7031 123.533 54.6754C123.728 54.6477 123.927 54.6598 124.117 54.711C124.307 54.7622 124.485 54.8514 124.64 54.9733C124.795 55.0952 124.923 55.2472 125.017 55.4201Z" fill="#263238"/>
<path d="M135.402 57.1539L132.561 56.1606C132.616 55.9723 132.708 55.7972 132.834 55.6461C132.959 55.4951 133.113 55.3712 133.288 55.2821C133.463 55.193 133.654 55.1406 133.85 55.1281C134.046 55.1156 134.242 55.1433 134.427 55.2094C134.808 55.3464 135.122 55.6247 135.303 55.9867C135.485 56.3486 135.52 56.7666 135.402 57.1539Z" fill="#263238"/>
<path d="M127.684 60.5491C127.643 60.5491 127.603 60.541 127.565 60.5252C127.528 60.5094 127.494 60.4862 127.465 60.4571C127.436 60.4279 127.414 60.3934 127.399 60.3554C127.384 60.3175 127.376 60.2769 127.377 60.2361C127.377 59.7364 128.365 59.4114 129.256 59.4114C130.146 59.4114 130.718 59.7364 130.718 60.2361C130.7 60.3015 130.66 60.3591 130.606 60.4C130.552 60.441 130.485 60.4632 130.417 60.4632C130.349 60.4632 130.283 60.441 130.229 60.4C130.175 60.3591 130.135 60.3015 130.116 60.2361C130.116 60.1759 129.809 60.0254 129.274 60.0254C128.842 60.0162 128.413 60.0898 128.009 60.2421C128.009 60.284 128.001 60.3255 127.984 60.3639C127.968 60.4024 127.944 60.4371 127.913 60.4659C127.883 60.4946 127.847 60.5168 127.807 60.5312C127.768 60.5455 127.726 60.5516 127.684 60.5491Z" fill="#455A64"/>
<path d="M120.479 60.2843H120.442L113.562 59.6823C113.24 59.3636 112.857 59.1137 112.436 58.9478L120.515 59.6943C120.596 59.7048 120.669 59.7466 120.72 59.8107C120.771 59.8749 120.794 59.9562 120.786 60.0374C120.771 60.1081 120.733 60.1715 120.677 60.2166C120.621 60.2617 120.551 60.2857 120.479 60.2843Z" fill="#455A64"/>
<path d="M92.2265 67.4601C94.478 64.4501 96.0131 62.1806 98.0659 59.6341C99.2338 58.1712 99.9802 57.1238 101.076 55.6248C101.846 54.5893 102.28 53.7164 103.159 53.3974C104.108 53.0083 104.964 52.4213 105.669 51.6757C106.102 51.1962 106.505 50.6895 106.873 50.1586C108.163 48.4219 109.696 46.8791 111.424 45.5774C113.23 44.2169 115.247 43.1694 117.107 41.8751C118.215 41.0985 119.401 39.8102 118.052 38.6062C117.639 38.2579 117.144 38.0198 116.614 37.9139C113.333 37.2036 110.479 38.3293 107.27 39.148C105.877 39.4959 104.514 39.957 103.195 40.5266C102.546 40.7831 101.938 41.1319 101.389 41.5621C100.621 42.3361 99.992 43.2361 99.5287 44.2229C98.1261 46.7272 95.1161 48.9667 93.0091 50.9472C90.5469 53.2649 88.3436 55.39 85.5322 57.9425C83.0038 60.2481 80.5296 62.3672 78.2119 64.8835C76.2915 66.9604 77.0079 68.5858 77.2608 69.1517C78.826 72.3664 80.5778 73.5222 82.6788 75.5149C86.2908 78.9643 98.7823 88.8913 102.918 92.1722C103.807 92.8701 104.504 93.7812 104.947 94.821L105.741 96.6571C110.461 97.524 113.61 90.4384 109.703 81.9081C109.056 80.5287 108.067 79.3373 106.831 78.4466C101.895 74.8527 92.2265 67.4601 92.2265 67.4601Z" fill="#FFA8A7"/>
<path d="M92.2266 67.4601C90.7244 69.3081 88.7225 70.6852 86.4595 71.4273C86.4595 71.4273 89.4695 72.1978 93.5932 68.4955L92.2266 67.4601Z" fill="#F28F8F"/>
<path d="M153.426 111.316L152.655 110.654C152.54 110.578 152.409 110.53 152.272 110.514C152.135 110.499 151.996 110.515 151.867 110.563L143.505 112.839C143.084 112.979 142.698 113.209 142.374 113.513C142.049 113.816 141.795 114.186 141.627 114.597L135.607 131.952C135.534 132.094 135.506 132.254 135.525 132.411C135.544 132.569 135.61 132.718 135.715 132.837L136.51 133.524C136.625 133.603 136.759 133.654 136.898 133.671C137.037 133.687 137.179 133.67 137.31 133.62L145.684 131.344C146.105 131.204 146.491 130.974 146.815 130.671C147.139 130.367 147.394 129.998 147.562 129.587C148.766 126.173 152.378 115.644 153.582 112.231C153.727 111.803 153.655 111.478 153.426 111.316Z" fill="#455A64"/>
<path d="M136.395 132.621L142.415 115.265C142.583 114.854 142.837 114.485 143.162 114.182C143.486 113.88 143.872 113.651 144.294 113.513L152.649 111.238C153.426 111.027 153.853 111.472 153.576 112.231C152.372 115.644 148.76 126.173 147.556 129.586C147.388 129.997 147.134 130.367 146.809 130.671C146.485 130.974 146.099 131.204 145.678 131.344L137.322 133.644C136.552 133.825 136.136 133.379 136.395 132.621Z" fill="#666666"/>
<path d="M143.384 113.995C142.95 114.324 142.613 114.765 142.409 115.271L136.389 132.621C136.32 132.758 136.292 132.913 136.307 133.066C136.321 133.22 136.379 133.366 136.474 133.487L135.727 132.849C135.62 132.731 135.552 132.583 135.531 132.425C135.511 132.267 135.539 132.106 135.613 131.964L141.633 114.609C141.823 114.137 142.132 113.722 142.53 113.405L143.384 113.995Z" fill="#37474F"/>
<path d="M151.132 119.226C150.53 120.99 148.441 122.17 144.986 122.989C141.53 123.807 139.622 127.473 140.17 128.587C140.718 129.701 146.304 130.742 148.538 130.423C150.771 130.104 153.011 126.878 153.691 125.878C154.371 124.879 155.154 117.908 154.437 116.951C153.721 115.993 152.21 116.144 152.21 116.144L151.132 119.226Z" fill="#F28F8F"/>
</svg>
