<svg width="314" height="42" viewBox="0 0 314 42" fill="none" xmlns="http://www.w3.org/2000/svg">
<path fill-rule="evenodd" clip-rule="evenodd" d="M11.8045 41.3158C5.28506 41.3158 0 36.0307 0 29.5113C0 13.2126 13.2127 0 29.5113 0H302.195C308.715 0 314 5.28506 314 11.8045C314 28.1031 300.787 41.3158 284.489 41.3158H11.8045ZM123.433 17.8653C122.994 18.6214 122.775 19.4755 122.775 20.4276C122.775 21.3797 122.994 22.2338 123.433 22.9899C123.881 23.7459 124.483 24.3387 125.239 24.7681C125.995 25.1881 126.83 25.3981 127.745 25.3981C128.781 25.3981 129.701 25.1461 130.503 24.642C131.316 24.138 131.904 23.4192 132.268 22.4858H130.349C130.097 22.9992 129.747 23.3819 129.299 23.6339C128.851 23.886 128.333 24.012 127.745 24.012C127.101 24.012 126.527 23.8673 126.023 23.5779C125.519 23.2792 125.122 22.8592 124.833 22.3178C124.553 21.7764 124.413 21.1463 124.413 20.4276C124.413 19.7089 124.553 19.0788 124.833 18.5374C125.122 17.996 125.519 17.5806 126.023 17.2913C126.527 17.0019 127.101 16.8572 127.745 16.8572C128.333 16.8572 128.851 16.9832 129.299 17.2353C129.747 17.4873 130.097 17.87 130.349 18.3834H132.268C131.904 17.45 131.316 16.7312 130.503 16.2272C129.701 15.7138 128.781 15.4571 127.745 15.4571C126.84 15.4571 126.004 15.6718 125.239 16.1012C124.483 16.5212 123.881 17.1093 123.433 17.8653ZM135.928 24.9501C136.516 25.2768 137.174 25.4401 137.902 25.4401C138.64 25.4401 139.312 25.2768 139.919 24.9501C140.535 24.614 141.02 24.1427 141.375 23.5359C141.729 22.9292 141.907 22.2338 141.907 21.4497C141.907 20.6656 141.734 19.9702 141.389 19.3635C141.043 18.7568 140.572 18.29 139.975 17.9633C139.377 17.6366 138.71 17.4733 137.972 17.4733C137.235 17.4733 136.568 17.6366 135.97 17.9633C135.373 18.29 134.901 18.7568 134.556 19.3635C134.211 19.9702 134.038 20.6656 134.038 21.4497C134.038 22.2431 134.206 22.9432 134.542 23.5499C134.878 24.1473 135.34 24.614 135.928 24.9501ZM139.05 23.7599C138.696 23.956 138.313 24.054 137.902 24.054C137.258 24.054 136.722 23.83 136.292 23.3819C135.872 22.9245 135.662 22.2805 135.662 21.4497C135.662 20.8897 135.765 20.4183 135.97 20.0356C136.176 19.6435 136.451 19.3495 136.796 19.1535C137.151 18.9574 137.534 18.8594 137.944 18.8594C138.355 18.8594 138.738 18.9574 139.092 19.1535C139.447 19.3495 139.732 19.6435 139.947 20.0356C140.161 20.4183 140.269 20.8897 140.269 21.4497C140.269 22.0098 140.157 22.4858 139.933 22.8779C139.709 23.2699 139.415 23.5639 139.05 23.7599ZM149.421 17.8513C148.945 17.5993 148.404 17.4733 147.797 17.4733C147.34 17.4733 146.906 17.562 146.495 17.7393C146.094 17.9167 145.762 18.164 145.501 18.4814V17.5993H143.905V25.3141H145.501V21.0017C145.501 20.3109 145.674 19.7835 146.019 19.4195C146.374 19.0461 146.85 18.8594 147.447 18.8594C148.044 18.8594 148.516 19.0461 148.861 19.4195C149.207 19.7835 149.379 20.3109 149.379 21.0017V25.3141H150.961V20.7636C150.961 20.0636 150.826 19.4662 150.555 18.9714C150.285 18.4767 149.907 18.1034 149.421 17.8513ZM155.28 23.1719V18.9014H157.156V17.5993H155.28V15.6811H153.67V17.5993H152.759V18.9014H153.67V23.1719C153.67 23.928 153.861 24.474 154.244 24.8101C154.626 25.1461 155.177 25.3141 155.896 25.3141H157.156V23.984H156.176C155.849 23.984 155.616 23.9233 155.476 23.802C155.345 23.6713 155.28 23.4613 155.28 23.1719ZM159.131 16.2832C159.327 16.4792 159.57 16.5772 159.859 16.5772C160.139 16.5772 160.377 16.4792 160.573 16.2832C160.769 16.0872 160.867 15.8445 160.867 15.5551C160.867 15.2657 160.769 15.023 160.573 14.827C160.377 14.631 160.139 14.533 159.859 14.533C159.57 14.533 159.327 14.631 159.131 14.827C158.935 15.023 158.837 15.2657 158.837 15.5551C158.837 15.8445 158.935 16.0872 159.131 16.2832ZM160.643 25.3141V17.5993H159.047V25.3141H160.643ZM168.675 17.8513C168.199 17.5993 167.658 17.4733 167.051 17.4733C166.594 17.4733 166.16 17.562 165.749 17.7393C165.348 17.9167 165.016 18.164 164.755 18.4814V17.5993H163.159V25.3141H164.755V21.0017C164.755 20.3109 164.928 19.7835 165.273 19.4195C165.628 19.0461 166.104 18.8594 166.701 18.8594C167.299 18.8594 167.77 19.0461 168.115 19.4195C168.461 19.7835 168.633 20.3109 168.633 21.0017V25.3141H170.216V20.7636C170.216 20.0636 170.08 19.4662 169.81 18.9714C169.539 18.4767 169.161 18.1034 168.675 17.8513ZM179.658 25.3141V17.5993H178.062V21.8978C178.062 22.5885 177.885 23.1206 177.53 23.4939C177.185 23.858 176.713 24.04 176.116 24.04C175.519 24.04 175.047 23.858 174.702 23.4939C174.357 23.1206 174.184 22.5885 174.184 21.8978V17.5993H172.602V22.1358C172.602 22.8359 172.737 23.4332 173.008 23.928C173.288 24.4227 173.666 24.7961 174.142 25.0481C174.627 25.3001 175.173 25.4261 175.78 25.4261C176.237 25.4261 176.667 25.3374 177.068 25.1601C177.479 24.9734 177.81 24.7214 178.062 24.404V25.3141H179.658ZM189.199 22.0518C189.237 21.8184 189.255 21.5571 189.255 21.2677C189.255 20.5209 189.097 19.8629 188.779 19.2935C188.462 18.7148 188.018 18.2667 187.449 17.9493C186.88 17.632 186.231 17.4733 185.503 17.4733C184.747 17.4733 184.075 17.6366 183.487 17.9633C182.908 18.29 182.455 18.7568 182.128 19.3635C181.811 19.9609 181.652 20.6563 181.652 21.4497C181.652 22.2431 181.816 22.9432 182.142 23.5499C182.479 24.1473 182.936 24.614 183.515 24.9501C184.103 25.2768 184.765 25.4401 185.503 25.4401C186.408 25.4401 187.164 25.2161 187.771 24.7681C188.387 24.3107 188.812 23.7273 189.045 23.0179H187.323C186.968 23.7366 186.362 24.096 185.503 24.096C184.905 24.096 184.401 23.9093 183.991 23.5359C183.58 23.1626 183.351 22.6678 183.305 22.0518H189.199ZM186.959 19.3495C187.37 19.7042 187.58 20.1756 187.589 20.7636H183.319C183.393 20.1662 183.627 19.6949 184.019 19.3495C184.411 18.9948 184.882 18.8174 185.433 18.8174C186.04 18.8174 186.548 18.9948 186.959 19.3495Z" fill="#666666"/>
</svg>
