<svg width="314" height="42" viewBox="0 0 314 42" fill="none" xmlns="http://www.w3.org/2000/svg">
<path fill-rule="evenodd" clip-rule="evenodd" d="M11.8045 41.3158C5.28506 41.3158 0 36.0307 0 29.5113C0 13.2126 13.2127 0 29.5113 0H302.195C308.715 0 314 5.28506 314 11.8045C314 28.1031 300.787 41.3158 284.489 41.3158H11.8045ZM90.556 17.8653C90.1173 18.6214 89.8979 19.4755 89.8979 20.4276C89.8979 21.3797 90.1173 22.2338 90.556 22.9899C91.004 23.7459 91.6061 24.3387 92.3622 24.7681C93.1182 25.1881 93.9537 25.3981 94.8684 25.3981C95.9045 25.3981 96.824 25.1461 97.6267 24.642C98.4388 24.138 99.0269 23.4192 99.3909 22.4858H97.4727C97.2207 22.9992 96.8706 23.3819 96.4226 23.6339C95.9745 23.886 95.4565 24.012 94.8684 24.012C94.2244 24.012 93.6503 23.8673 93.1462 23.5779C92.6422 23.2792 92.2455 22.8592 91.9561 22.3178C91.6761 21.7764 91.5361 21.1463 91.5361 20.4276C91.5361 19.7089 91.6761 19.0788 91.9561 18.5374C92.2455 17.996 92.6422 17.5806 93.1462 17.2913C93.6503 17.0019 94.2244 16.8572 94.8684 16.8572C95.4565 16.8572 95.9745 16.9832 96.4226 17.2353C96.8706 17.4873 97.2207 17.87 97.4727 18.3834H99.3909C99.0269 17.45 98.4388 16.7312 97.6267 16.2272C96.824 15.7138 95.9045 15.4571 94.8684 15.4571C93.963 15.4571 93.1276 15.6718 92.3622 16.1012C91.6061 16.5212 91.004 17.1093 90.556 17.8653ZM107.238 17.8513C106.78 17.5993 106.258 17.4733 105.67 17.4733C105.175 17.4733 104.718 17.562 104.298 17.7393C103.887 17.9167 103.546 18.1687 103.275 18.4954V14.953H101.679V25.3141H103.275V21.0017C103.275 20.3109 103.448 19.7835 103.793 19.4195C104.148 19.0461 104.624 18.8594 105.222 18.8594C105.819 18.8594 106.29 19.0461 106.636 19.4195C106.981 19.7835 107.154 20.3109 107.154 21.0017V25.3141H108.736V20.7636C108.736 20.0636 108.601 19.4662 108.33 18.9714C108.069 18.4767 107.705 18.1034 107.238 17.8513ZM111.136 19.3635C110.819 19.9609 110.66 20.647 110.66 21.4217C110.66 22.1965 110.819 22.8919 111.136 23.5079C111.463 24.1147 111.901 24.5907 112.452 24.9361C113.003 25.2721 113.61 25.4401 114.272 25.4401C114.87 25.4401 115.402 25.3188 115.869 25.0761C116.335 24.8334 116.704 24.53 116.975 24.166V25.3141H118.585V17.5993H116.975V18.7194C116.704 18.3647 116.34 18.0707 115.883 17.8373C115.434 17.5946 114.907 17.4733 114.3 17.4733C113.628 17.4733 113.012 17.6413 112.452 17.9773C111.901 18.304 111.463 18.7661 111.136 19.3635ZM116.639 20.0636C116.863 20.4556 116.975 20.9177 116.975 21.4497C116.975 21.9818 116.863 22.4485 116.639 22.8499C116.424 23.2419 116.139 23.5406 115.785 23.7459C115.43 23.9513 115.047 24.054 114.636 24.054C114.235 24.054 113.852 23.9513 113.488 23.7459C113.134 23.5313 112.844 23.2232 112.62 22.8219C112.406 22.4205 112.298 21.9538 112.298 21.4217C112.298 20.8897 112.406 20.4323 112.62 20.0496C112.844 19.6575 113.134 19.3635 113.488 19.1675C113.843 18.9621 114.226 18.8594 114.636 18.8594C115.047 18.8594 115.43 18.9621 115.785 19.1675C116.139 19.3728 116.424 19.6715 116.639 20.0636ZM126.618 17.8513C126.142 17.5993 125.601 17.4733 124.994 17.4733C124.536 17.4733 124.102 17.562 123.692 17.7393C123.29 17.9167 122.959 18.164 122.698 18.4814V17.5993H121.101V25.3141H122.698V21.0017C122.698 20.3109 122.87 19.7835 123.216 19.4195C123.57 19.0461 124.046 18.8594 124.644 18.8594C125.241 18.8594 125.713 19.0461 126.058 19.4195C126.403 19.7835 126.576 20.3109 126.576 21.0017V25.3141H128.158V20.7636C128.158 20.0636 128.023 19.4662 127.752 18.9714C127.481 18.4767 127.103 18.1034 126.618 17.8513ZM135.305 17.8373C134.847 17.5946 134.32 17.4733 133.722 17.4733C133.05 17.4733 132.434 17.6413 131.874 17.9773C131.324 18.304 130.885 18.7661 130.558 19.3635C130.241 19.9609 130.082 20.647 130.082 21.4217C130.082 22.1965 130.241 22.8919 130.558 23.5079C130.885 24.1147 131.324 24.5907 131.874 24.9361C132.434 25.2721 133.05 25.4401 133.722 25.4401C134.311 25.4401 134.833 25.3188 135.291 25.0761C135.757 24.8241 136.126 24.516 136.397 24.152V25.4401C136.397 26.1869 136.196 26.7563 135.795 27.1483C135.403 27.5403 134.885 27.7364 134.241 27.7364C133.69 27.7364 133.214 27.6104 132.812 27.3583C132.42 27.1156 132.164 26.7936 132.042 26.3922H130.46C130.553 27.2323 130.946 27.895 131.636 28.3804C132.327 28.8751 133.195 29.1225 134.241 29.1225C135.025 29.1225 135.697 28.9638 136.257 28.6465C136.826 28.3291 137.26 27.8904 137.559 27.3303C137.858 26.7796 138.007 26.1495 138.007 25.4401V17.5993H136.397V18.7194C136.135 18.3647 135.771 18.0707 135.305 17.8373ZM136.061 20.0636C136.285 20.4556 136.397 20.9177 136.397 21.4497C136.397 21.9818 136.285 22.4485 136.061 22.8499C135.846 23.2419 135.561 23.5406 135.207 23.7459C134.852 23.9513 134.469 24.054 134.059 24.054C133.657 24.054 133.274 23.9513 132.91 23.7459C132.556 23.5313 132.266 23.2232 132.042 22.8219C131.828 22.4205 131.72 21.9538 131.72 21.4217C131.72 20.8897 131.828 20.4323 132.042 20.0496C132.266 19.6575 132.556 19.3635 132.91 19.1675C133.265 18.9621 133.648 18.8594 134.059 18.8594C134.469 18.8594 134.852 18.9621 135.207 19.1675C135.561 19.3728 135.846 19.6715 136.061 20.0636ZM147.538 22.0518C147.576 21.8184 147.594 21.5571 147.594 21.2677C147.594 20.5209 147.436 19.8629 147.118 19.2935C146.801 18.7148 146.357 18.2667 145.788 17.9493C145.219 17.632 144.57 17.4733 143.842 17.4733C143.086 17.4733 142.414 17.6366 141.826 17.9633C141.247 18.29 140.794 18.7568 140.467 19.3635C140.15 19.9609 139.991 20.6563 139.991 21.4497C139.991 22.2431 140.155 22.9432 140.481 23.5499C140.817 24.1473 141.275 24.614 141.854 24.9501C142.442 25.2768 143.104 25.4401 143.842 25.4401C144.747 25.4401 145.503 25.2161 146.11 24.7681C146.726 24.3107 147.151 23.7273 147.384 23.0179H145.662C145.307 23.7366 144.701 24.096 143.842 24.096C143.244 24.096 142.74 23.9093 142.33 23.5359C141.919 23.1626 141.69 22.6678 141.644 22.0518H147.538ZM145.298 19.3495C145.709 19.7042 145.919 20.1756 145.928 20.7636H141.658C141.732 20.1662 141.966 19.6949 142.358 19.3495C142.75 18.9948 143.221 18.8174 143.772 18.8174C144.379 18.8174 144.887 18.9948 145.298 19.3495ZM160.097 19.8815C160.33 19.4428 160.447 18.9761 160.447 18.4814C160.447 17.94 160.316 17.45 160.055 17.0112C159.803 16.5725 159.415 16.2272 158.893 15.9751C158.379 15.7138 157.749 15.5831 157.003 15.5831H153.642V25.3141H155.238V21.3657H157.003C157.805 21.3657 158.463 21.2304 158.977 20.9597C159.49 20.6796 159.863 20.3203 160.097 19.8815ZM158.361 19.6575C158.062 19.9282 157.609 20.0636 157.003 20.0636H155.238V16.8852H157.003C158.207 16.8852 158.809 17.4173 158.809 18.4814C158.809 18.9855 158.659 19.3775 158.361 19.6575ZM162.333 19.3635C162.016 19.9609 161.857 20.647 161.857 21.4217C161.857 22.1965 162.016 22.8919 162.333 23.5079C162.66 24.1147 163.099 24.5907 163.649 24.9361C164.2 25.2721 164.807 25.4401 165.47 25.4401C166.067 25.4401 166.599 25.3188 167.066 25.0761C167.532 24.8334 167.901 24.53 168.172 24.166V25.3141H169.782V17.5993H168.172V18.7194C167.901 18.3647 167.537 18.0707 167.08 17.8373C166.632 17.5946 166.104 17.4733 165.498 17.4733C164.826 17.4733 164.209 17.6413 163.649 17.9773C163.099 18.304 162.66 18.7661 162.333 19.3635ZM167.836 20.0636C168.06 20.4556 168.172 20.9177 168.172 21.4497C168.172 21.9818 168.06 22.4485 167.836 22.8499C167.621 23.2419 167.336 23.5406 166.982 23.7459C166.627 23.9513 166.244 24.054 165.834 24.054C165.432 24.054 165.05 23.9513 164.685 23.7459C164.331 23.5313 164.041 23.2232 163.817 22.8219C163.603 22.4205 163.495 21.9538 163.495 21.4217C163.495 20.8897 163.603 20.4323 163.817 20.0496C164.041 19.6575 164.331 19.3635 164.685 19.1675C165.04 18.9621 165.423 18.8594 165.834 18.8594C166.244 18.8594 166.627 18.9621 166.982 19.1675C167.336 19.3728 167.621 19.6715 167.836 20.0636ZM173.461 25.1181C173.946 25.3328 174.492 25.4401 175.099 25.4401C175.696 25.4401 176.214 25.3421 176.653 25.1461C177.101 24.9501 177.446 24.6794 177.689 24.334C177.932 23.9886 178.053 23.5966 178.053 23.1579C178.044 22.6632 177.908 22.2665 177.647 21.9678C177.386 21.6691 177.073 21.445 176.709 21.2957C176.354 21.137 175.897 20.983 175.337 20.8336C174.917 20.7123 174.599 20.6143 174.385 20.5396C174.17 20.4556 173.988 20.3436 173.839 20.2036C173.689 20.0636 173.615 19.8909 173.615 19.6855C173.615 19.4242 173.727 19.2141 173.951 19.0555C174.175 18.8968 174.497 18.8174 174.917 18.8174C175.346 18.8174 175.687 18.9201 175.939 19.1255C176.191 19.3308 176.331 19.6062 176.359 19.9516H177.955C177.918 19.1861 177.628 18.5841 177.087 18.1454C176.555 17.6973 175.85 17.4733 174.973 17.4733C174.385 17.4733 173.862 17.5713 173.405 17.7673C172.957 17.9633 172.611 18.234 172.369 18.5794C172.126 18.9154 172.005 19.2888 172.005 19.6995C172.005 20.2036 172.135 20.6096 172.397 20.9177C172.667 21.2257 172.985 21.4544 173.349 21.6037C173.713 21.7531 174.184 21.9071 174.763 22.0658C175.36 22.2338 175.794 22.3878 176.065 22.5278C176.345 22.6678 176.485 22.8825 176.485 23.1719C176.485 23.4426 176.359 23.6666 176.107 23.844C175.864 24.012 175.519 24.096 175.071 24.096C174.641 24.096 174.282 23.9886 173.993 23.7739C173.713 23.5499 173.559 23.2746 173.531 22.9479H171.879C171.897 23.4146 172.047 23.8393 172.327 24.222C172.607 24.5954 172.985 24.8941 173.461 25.1181ZM181.36 25.1181C181.845 25.3328 182.391 25.4401 182.998 25.4401C183.596 25.4401 184.114 25.3421 184.552 25.1461C185 24.9501 185.346 24.6794 185.588 24.334C185.831 23.9886 185.953 23.5966 185.953 23.1579C185.943 22.6632 185.808 22.2665 185.546 21.9678C185.285 21.6691 184.972 21.445 184.608 21.2957C184.254 21.137 183.796 20.983 183.236 20.8336C182.816 20.7123 182.499 20.6143 182.284 20.5396C182.069 20.4556 181.887 20.3436 181.738 20.2036C181.589 20.0636 181.514 19.8909 181.514 19.6855C181.514 19.4242 181.626 19.2141 181.85 19.0555C182.074 18.8968 182.396 18.8174 182.816 18.8174C183.246 18.8174 183.586 18.9201 183.838 19.1255C184.09 19.3308 184.23 19.6062 184.258 19.9516H185.854C185.817 19.1861 185.528 18.5841 184.986 18.1454C184.454 17.6973 183.75 17.4733 182.872 17.4733C182.284 17.4733 181.761 17.5713 181.304 17.7673C180.856 17.9633 180.511 18.234 180.268 18.5794C180.025 18.9154 179.904 19.2888 179.904 19.6995C179.904 20.2036 180.035 20.6096 180.296 20.9177C180.567 21.2257 180.884 21.4544 181.248 21.6037C181.612 21.7531 182.083 21.9071 182.662 22.0658C183.26 22.2338 183.694 22.3878 183.964 22.5278C184.244 22.6678 184.384 22.8825 184.384 23.1719C184.384 23.4426 184.258 23.6666 184.006 23.844C183.764 24.012 183.418 24.096 182.97 24.096C182.541 24.096 182.181 23.9886 181.892 23.7739C181.612 23.5499 181.458 23.2746 181.43 22.9479H179.778C179.797 23.4146 179.946 23.8393 180.226 24.222C180.506 24.5954 180.884 24.8941 181.36 25.1181ZM196.064 25.3141L198.458 17.5993H196.89L195.294 23.7739L193.726 17.5993H192.06L190.421 23.802L188.811 17.5993H187.187L189.595 25.3141H191.276L192.83 19.6155L194.384 25.3141H196.064ZM201.443 24.9501C202.031 25.2768 202.69 25.4401 203.418 25.4401C204.155 25.4401 204.827 25.2768 205.434 24.9501C206.05 24.614 206.535 24.1427 206.89 23.5359C207.245 22.9292 207.422 22.2338 207.422 21.4497C207.422 20.6656 207.249 19.9702 206.904 19.3635C206.559 18.7568 206.087 18.29 205.49 17.9633C204.892 17.6366 204.225 17.4733 203.488 17.4733C202.75 17.4733 202.083 17.6366 201.485 17.9633C200.888 18.29 200.417 18.7568 200.071 19.3635C199.726 19.9702 199.553 20.6656 199.553 21.4497C199.553 22.2431 199.721 22.9432 200.057 23.5499C200.393 24.1473 200.855 24.614 201.443 24.9501ZM204.566 23.7599C204.211 23.956 203.828 24.054 203.418 24.054C202.774 24.054 202.237 23.83 201.807 23.3819C201.387 22.9245 201.177 22.2805 201.177 21.4497C201.177 20.8897 201.28 20.4183 201.485 20.0356C201.691 19.6435 201.966 19.3495 202.311 19.1535C202.666 18.9574 203.049 18.8594 203.46 18.8594C203.87 18.8594 204.253 18.9574 204.608 19.1535C204.962 19.3495 205.247 19.6435 205.462 20.0356C205.676 20.4183 205.784 20.8897 205.784 21.4497C205.784 22.0098 205.672 22.4858 205.448 22.8779C205.224 23.2699 204.93 23.5639 204.566 23.7599ZM211.94 17.8093C211.558 18.024 211.249 18.3274 211.016 18.7194V17.5993H209.42V25.3141H211.016V21.2537C211.016 20.4696 211.175 19.9189 211.492 19.6015C211.819 19.2841 212.295 19.1255 212.92 19.1255H213.326V17.4733C212.794 17.4733 212.332 17.5853 211.94 17.8093ZM215.158 19.3635C214.84 19.9609 214.682 20.647 214.682 21.4217C214.682 22.1965 214.84 22.8919 215.158 23.5079C215.484 24.1147 215.923 24.5907 216.474 24.9361C217.034 25.2721 217.65 25.4401 218.322 25.4401C218.919 25.4401 219.447 25.3188 219.904 25.0761C220.371 24.8334 220.735 24.5254 220.996 24.152V25.3141H222.606V14.953H220.996V18.6774C220.707 18.3134 220.315 18.024 219.82 17.8093C219.335 17.5853 218.84 17.4733 218.336 17.4733C217.655 17.4733 217.034 17.6413 216.474 17.9773C215.923 18.304 215.484 18.7661 215.158 19.3635ZM220.66 20.0636C220.884 20.4556 220.996 20.9177 220.996 21.4497C220.996 21.9818 220.884 22.4485 220.66 22.8499C220.445 23.2419 220.161 23.5406 219.806 23.7459C219.451 23.9513 219.069 24.054 218.658 24.054C218.257 24.054 217.874 23.9513 217.51 23.7459C217.155 23.5313 216.866 23.2232 216.642 22.8219C216.427 22.4205 216.32 21.9538 216.32 21.4217C216.32 20.8897 216.427 20.4323 216.642 20.0496C216.866 19.6575 217.155 19.3635 217.51 19.1675C217.865 18.9621 218.247 18.8594 218.658 18.8594C219.069 18.8594 219.451 18.9621 219.806 19.1675C220.161 19.3728 220.445 19.6715 220.66 20.0636Z" fill="#666666"/>
</svg>
